<?xml version="1.0" standalone="no"?>
<!DOCTYPE svg PUBLIC "-//W3C//DTD SVG 1.1//EN" "http://www.w3.org/Graphics/SVG/1.1/DTD/svg11.dtd" >
<!--
2013-9-30: Created.
-->
<svg>
<metadata>
Created by iconfont
</metadata>
<defs>

<font id="iconfont" horiz-adv-x="1024" >
  <font-face
    font-family="iconfont"
    font-weight="500"
    font-stretch="normal"
    units-per-em="1024"
    ascent="896"
    descent="-128"
  />
    <missing-glyph />
    
    <glyph glyph-name="duoxuanti" unicode="&#59102;" d="M192 128H64c-35.2 0-64-28.8-64-64v-128c0-35.2 28.8-64 64-64h128c35.2 0 64 28.8 64 64v128c0 35.2-28.8 64-64 64z m0-192H64v128h128v-128zM384 80h640v-160H384zM384 848h640v-160H384zM192 896H64C28.8 896 0 867.2 0 832v-128c0-35.2 28.8-64 64-64h128c35.2 0 64 28.8 64 64V832c0 35.2-28.8 64-64 64zM134.4 723.2L99.2 688l-32 35.2L32 758.4l35.2 35.2 35.2-35.2L192 848l32-35.2-89.6-89.6zM384 464h640v-160H384zM192 512H64c-35.2 0-64-28.8-64-64v-128c0-35.2 28.8-64 64-64h128c35.2 0 64 28.8 64 64v128c0 35.2-28.8 64-64 64z m-57.6-172.8l-35.2-35.2L64 339.2l-32 35.2 35.2 35.2 35.2-35.2L192 464l32-35.2-89.6-89.6z"  horiz-adv-x="1024" />

    
    <glyph glyph-name="panduanti" unicode="&#58921;" d="M916.992 322.56h-537.6c-21.504 0-40.448 14.336-45.056 34.816-6.656 30.208 15.36 57.344 43.52 57.344h537.6c21.504 0 40.448-14.336 45.056-34.816 7.168-30.208-15.36-57.344-43.52-57.344zM916.992 634.88h-537.6c-21.504 0-40.448 14.336-45.056 34.816-6.656 30.208 15.36 57.344 43.52 57.344h537.6c21.504 0 40.448-14.336 45.056-34.816 7.168-30.208-15.36-57.344-43.52-57.344zM377.856 102.4h537.6c21.504 0 40.448-14.336 45.056-34.816 6.656-30.208-15.36-57.344-43.52-57.344h-537.6c-21.504 0-40.448 14.336-45.056 34.816-7.168 30.208 15.36 57.344 43.52 57.344zM16.384 72.704l51.712 51.712 74.24-74.24 112.64 112.64 49.664-49.664-163.328-163.328-124.928 122.88zM78.2848 505.89696l210.14016-221.94176-44.61056-42.24L33.66912 463.65696zM292.69504 455.4752l-221.94688-210.14528-42.24 44.61568 221.94688 210.14016zM78.7456 818.1248l210.14528-221.94176-44.61056-42.24L34.13504 775.88992zM293.00736 767.73888L71.0656 557.5936l-42.24 44.61056 221.94176 210.14528z"  horiz-adv-x="1024" />

    
    <glyph glyph-name="wendati" unicode="&#58922;" d="M825.6 172.1c0 21.4-24.4 38.7-54.4 38.7s-54.4-17.3-54.4-38.7c0-5.4 1.5-10.5 4.3-15.1h-63.6c0 56.4 51.2 102.2 114.3 102.2 63.1 0 114.3-45.7 114.3-102.2h-64.8c2.8 4.6 4.3 9.7 4.3 15.1zM654.6 155.8c0-7.4 14.1-13.3 31.4-13.3 17.4 0 31.4 6 31.4 13.3 0 7.3-14.1 13.3-31.4 13.3-17.4 0-31.4-6-31.4-13.3z m166.2 1.3s-0.3-10.4-9-15.1l-42.2-39.1s-26.7-24.5-27.1-45.1v-36.1h54.2s-0.7 17.7 0 33.1c0.2 11.9 63.3 63.2 63.3 63.2s24.4 19.1 24.1 39.1c-0.3 20-63.3 0-63.3 0z m-93.3-204.8c0-21.5 17.5-39 39-39s39 17.5 39 39-17.5 39-39 39c-21.6 0-39-17.5-39-39z m0 0M536.1-80.7H201.4c-30.3 0-58.5 13.7-79.5 38.4-20.2 23.9-31.4 55.4-31.4 88.7V761c0 33.4 11.1 64.9 31.4 88.7 21 24.8 49.3 38.4 79.5 38.4h606.1c30.3 0 58.5-13.7 79.5-38.4 20.2-23.9 31.4-55.4 31.4-88.7v-434.8h-40V761c0 48.1-31.8 87.2-70.9 87.2H201.4c-39.1 0-70.9-39.1-70.9-87.2v-714.5c0-48.1 31.8-87.2 70.9-87.2h334.7v-40zM745.3 586.7H293.2c-16.3 0-29.5 8.9-29.5 20v0.1c0 11 13.2 19.9 29.5 19.9h452.2c16.3 0 29.5-8.9 29.5-19.9v-0.1c-0.1-11-13.3-20-29.6-20z m-481.6-194v0.1c0 11 13.2 19.9 29.5 19.9h452.2c16.3 0 29.5-8.9 29.5-19.9v-0.1c0-11-13.2-19.9-29.5-19.9H293.2c-16.3-0.1-29.5 8.8-29.5 19.9z"  horiz-adv-x="1024" />

    
    <glyph glyph-name="danxuanti" unicode="&#58991;" d="M959.965867-80.008533h-512a64.170667 64.170667 0 0 0-63.965867 64.034133v32.017067a64.170667 64.170667 0 0 0 63.965867 63.965866h512a64.170667 64.170667 0 0 0 64.034133-63.965866v-32.017067a64.170667 64.170667 0 0 0-64.034133-64.034133z m0 384h-512a64.170667 64.170667 0 0 0-63.965867 64.034133v32.017067a64.170667 64.170667 0 0 0 63.965867 63.965866h512a64.170667 64.170667 0 0 0 64.034133-63.965866v-32.017067a64.170667 64.170667 0 0 0-64.034133-64.034133z m0 384h-512a64.170667 64.170667 0 0 0-63.965867 64.034133v31.9488a64.170667 64.170667 0 0 0 63.965867 64.034133h512a64.170667 64.170667 0 0 0 64.034133-64.034133v-31.9488a64.170667 64.170667 0 0 0-64.034133-64.034133zM128-128A128.341333 128.341333 0 0 0 0 0a128.341333 128.341333 0 0 0 128 128 128.341333 128.341333 0 0 0 128-128A128.341333 128.341333 0 0 0 128-128z m0 208.008533c-44.782933 0-80.008533-35.2256-80.008533-80.008533 0-44.782933 35.2256-80.008533 80.008533-80.008533 44.782933 0 80.008533 35.2256 80.008533 80.008533 0 44.782933-35.2256 80.008533-80.008533 80.008533z m0 175.991467A128.341333 128.341333 0 0 0 0 384a128.341333 128.341333 0 0 0 128 128A128.341333 128.341333 0 0 0 256 384a128.341333 128.341333 0 0 0-128-128z m0 208.008533c-44.782933 0-80.008533-35.2256-80.008533-80.008533 0-44.782933 35.2256-80.008533 80.008533-80.008533 44.782933 0 80.008533 35.2256 80.008533 80.008533 0 44.782933-35.2256 80.008533-80.008533 80.008533z m0 175.991467A128.341333 128.341333 0 0 0 0 768 128.341333 128.341333 0 0 0 128 896 128.341333 128.341333 0 0 0 256 768 128.341333 128.341333 0 0 0 128 640z m0 208.008533c-44.782933 0-80.008533-35.2256-80.008533-80.008533 0-44.782933 35.2256-80.008533 80.008533-80.008533 44.782933 0 80.008533 35.2256 80.008533 80.008533 0 44.782933-35.2256 80.008533-80.008533 80.008533zM102.4 723.217067a51.2 51.2 0 0 0-25.6 44.782933 50.517333 50.517333 0 0 0 51.2 51.2 50.517333 50.517333 0 0 0 51.2-51.2 51.2 51.2 0 0 0-25.6-44.782933 49.015467 49.015467 0 0 0-51.2 0z"  horiz-adv-x="1024" />

    
    <glyph glyph-name="pingjia" unicode="&#58920;" d="M953.6 268.8a25.6 25.6 0 0 0-25.6 25.6V720.128A58.1632 58.1632 0 0 1 869.888 778.24H267.52a25.6 25.6 0 0 0 0 51.2H869.888a109.4144 109.4144 0 0 0 109.312-109.312v-425.728a25.6 25.6 0 0 0-25.6-25.6zM298.24-73.2672a30.72 30.72 0 0 0-30.72 30.72V69.12h-104.96a122.88 122.88 0 0 0-122.88 122.88v389.12a122.88 122.88 0 0 0 122.88 122.88h583.68a122.88 122.88 0 0 0 122.88-122.88v-389.12a122.88 122.88 0 0 0-122.88-122.88h-178.3296l-254.976-138.7008a30.72 30.72 0 0 0-14.6944-3.6864zM162.56 652.8a71.68 71.68 0 0 1-71.68-71.68v-389.12a71.68 71.68 0 0 1 71.68-71.68h125.44a30.72 30.72 0 0 0 30.72-30.72v-97.7408l227.0208 123.4944a40.96 40.96 0 0 0 19.5584 5.12h180.9408a71.68 71.68 0 0 1 71.68 71.68v389.12a71.68 71.68 0 0 1-71.68 71.68zM701.44 455.68H215.04a25.6 25.6 0 0 0 0 51.2h486.4a25.6 25.6 0 0 0 0-51.2zM599.04 315.1872H215.04a22.7328 22.7328 0 1 0 0 45.4656h384a22.7328 22.7328 0 0 0 0-45.4656z"  horiz-adv-x="1024" />

    
    <glyph glyph-name="xinxitongbu" unicode="&#58918;" d="M315.8-64.5H196.24c-70.99 0-128.74 57.75-128.74 128.75V696.76c0 70.99 57.75 128.74 128.74 128.74h632.51c70.99 0 128.75-57.75 128.75-128.74v-376.87c0-17.67-14.33-32-32-32s-32 14.33-32 32V696.76c0 35.7-29.04 64.74-64.75 64.74H196.24c-35.7 0-64.74-29.04-64.74-64.74v-632.51c0-35.7 29.04-64.75 64.74-64.75H315.8c17.67 0 32-14.33 32-32s-14.32-32-32-32zM598.48 416.85L480.09 532.6 361.7 416.85c-12.64-12.35-12.87-32.61-0.51-45.25 6.27-6.41 14.57-9.63 22.88-9.63 8.07 0 16.14 3.03 22.37 9.12L449 412.7V-32c0-17.67 14.33-32 32-32s32 14.33 32 32V410.92l40.74-39.83c12.64-12.35 32.9-12.13 45.25 0.51 12.36 12.64 12.13 32.9-0.51 45.25zM875.79 95.66999999999996c-12.36 12.64-32.62 12.87-45.25 0.51L789 55.57000000000005V497c0 17.67-14.33 32-32 32s-32-14.33-32-32v-441.64l-41.76 40.82c-12.64 12.35-32.9 12.13-45.25-0.51-12.36-12.64-12.13-32.9 0.51-45.25l118.39-115.75 118.39 115.75c12.64 12.35 12.87 32.61 0.51 45.25z"  horiz-adv-x="1024" />

    
    <glyph glyph-name="zaixianzhihang" unicode="&#58919;" d="M848.63 160.06H177.37C115.96 160.06 66 210.02 66 271.43V688.7c0 61.41 49.96 111.36 111.36 111.36h671.27C910.04 800.06 960 750.11 960 688.7v-417.27c0-61.41-49.96-111.37-111.37-111.37z m-671.26 576c-26.12 0-47.36-21.25-47.36-47.36v-417.27c0-26.12 21.25-47.36 47.36-47.36h671.27c26.12 0 47.36 21.25 47.36 47.36V688.7c0 26.12-21.25 47.36-47.36 47.36H177.37zM736.14-31.65H288.06c-17.65 0-31.96 14.31-31.96 31.96v0.08c0 17.65 14.31 31.96 31.96 31.96h448.08c17.65 0 31.96-14.31 31.96-31.96v-0.08c0-17.65-14.31-31.96-31.96-31.96zM445.13 290.77c-8.17 0-16.35 3.11-22.59 9.34L269.41 452.78c-12.52 12.48-12.55 32.74-0.07 45.25 12.48 12.51 32.74 12.55 45.25 0.07l130.53-130.15L717.4 639.42c12.51 12.48 32.78 12.45 45.25-0.07 12.48-12.52 12.45-32.78-0.07-45.25l-294.87-294c-6.23-6.22-14.4-9.33-22.58-9.33z"  horiz-adv-x="1024" />

    
    <glyph glyph-name="wangguan" unicode="&#59103;" d="M741.76 409.6h33.5872a38.4 38.4 0 0 0 34.9184-22.4128L851.2 297.7856V70.4a38.4 38.4 0 0 0-38.4-38.4H217.6a38.4 38.4 0 0 0-38.4 38.4V296.736l40.9792 90.3296A38.4 38.4 0 0 0 255.1488 409.6H288.64a32.1472 32.1472 0 0 0-0.64 6.4V704a32 32 0 0 0 64 0v-288c0-2.1888-0.2176-4.3328-0.64-6.4h327.68a32.1472 32.1472 0 0 0-0.64 6.4V704a32 32 0 1 0 64 0v-288c0-2.1888-0.2176-4.3328-0.64-6.4zM279.1552 345.6a6.4 6.4 0 0 1-5.7216-3.5392l-19.2-38.4A6.4 6.4 0 0 1 259.9552 294.4h511.6096a6.4 6.4 0 0 1 5.9904 8.6464l-14.4 38.4a6.4 6.4 0 0 1-5.9904 4.1536H279.1552z m370.4448-153.6a28.8 28.8 0 0 1 0-57.6h70.4a28.8 28.8 0 0 1 0 57.6h-70.4z m-102.4 0a28.8 28.8 0 0 1 0-57.6h12.8a28.8 28.8 0 0 1 0 57.6h-12.8z m-102.4 0a28.8 28.8 0 0 1 0-57.6h12.8a28.8 28.8 0 0 1 0 57.6h-12.8z"  horiz-adv-x="1024" />

    
    <glyph glyph-name="fayan" unicode="&#58916;" d="M512 247.616c86.08 0 155.84 69.824 155.84 155.904L667.84 676.16C667.84 762.24 598.08 832 512 832S356.16 762.24 356.16 676.16l0-272.704C356.16 317.44 425.92 247.616 512 247.616zM813.44 364.48l-41.408 0C738.368 252.096 635.328 169.728 512 169.728s-226.368 82.368-260.032 194.752L210.56 364.48c31.488-122.048 134.976-214.4 262.528-230.4l0-120.192L356.16 13.888 356.16-64l311.616 0 0 77.952L550.912 13.952l0 120.192C678.464 150.144 782.016 242.432 813.44 364.48z"  horiz-adv-x="1024" />

    
    <glyph glyph-name="jinzhifayan" unicode="&#58917;" d="M697.088 277.696c19.584 25.856 35.2 54.912 44.736 86.784l41.408 0c-11.328-43.84-32.256-83.648-59.968-117.632L697.088 277.696zM329.6 709.184C344.832 779.392 407.04 832 481.792 832c86.08 0 155.84-69.76 155.84-155.84l0-272.704c0-16.384-3.264-31.872-7.936-46.656L329.6 709.184zM784.832 37.504 180.992 733.696l58.88 51.072 603.84-696.192L784.832 37.504zM325.952 403.52 325.952 533.248l227.648-267.328c-21.568-11.328-45.76-18.304-71.744-18.304C395.776 247.616 325.952 317.44 325.952 403.52zM481.792 169.728c45.888 0 89.024 11.52 126.72 31.616l25.024-29.376c-34.304-19.136-72.128-32.768-112.832-37.952l0-120.128 116.864 0L637.568-64 520.768-64 442.816-64 325.952-64l0 77.952 116.864 0 0 120.128c-127.424 16.064-230.976 108.416-262.528 230.464l41.408 0C255.424 252.096 358.464 169.728 481.792 169.728z"  horiz-adv-x="1024" />

    
    <glyph glyph-name="shanchu" unicode="&#58914;" d="M42.816183 665.955579h75.608924v-606.356349A187.351737 187.351737 0 0 1 305.653098-128h433.111678a187.351737 187.351737 0 0 1 187.227991 187.227991v606.356349h75.608924a42.816183 42.816183 0 1 1 0 85.632366H709.436928V781.039539A115.207706 115.207706 0 0 1 593.98173 895.999753H450.064906a115.207706 115.207706 0 0 1-115.08396-114.960214v-29.451594H42.816183a42.816183 42.816183 0 0 1 0-85.632366zM420.737058 751.587945V781.039539a29.451594 29.451594 0 0 0 29.451595 29.327847H593.98173a29.451594 29.451594 0 0 0 29.699086-29.327847v-29.451594z m-216.432092-692.978685v606.356349H840.236655v-606.356349a101.595625 101.595625 0 0 0-101.471879-101.595625h-433.111678a101.595625 101.595625 0 0 0-101.471878 102.214356zM522.208937 88.555839a42.816183 42.816183 0 0 1 42.816183 42.816183v408.362439a42.816183 42.816183 0 1 1-85.632366 0v-408.362439a42.816183 42.816183 0 0 1 42.816183-42.816183zM329.65986 136.693108a42.939929 42.939929 0 0 1 42.939929 42.816183V492.215923a42.939929 42.939929 0 0 1-85.756112 0V179.509291a42.939929 42.939929 0 0 1 42.816183-42.816183zM690.627507 136.693108a42.816183 42.816183 0 0 1 42.816183 42.816183V492.215923a42.816183 42.816183 0 0 1-85.632366 0V179.509291a42.816183 42.816183 0 0 1 42.816183-42.816183z"  horiz-adv-x="1044" />

    
    <glyph glyph-name="fanhui1" unicode="&#58946;" d="M947.4 32C893.2 198.3 736.2 317.1 551 320.5c-23.1 0.4-44.9-0.1-65.6-1.5v-164.3c0.1-0.5 0.2-1 0.2-1.5 0-4-3.3-7.3-7.3-7.3-2.7 0-5 1.4-6.2 3.5v-0.7L68.8 430.6h2.1c-4 0-7.3 3.3-7.3 7.3 0 2.9 1.7 5.4 4.1 6.6L472 727v-0.7c1.3 2.1 3.6 3.5 6.2 3.5 4 0 7.3-3.3 7.3-7.3 0-0.5-0.1-1-0.2-1.5v-159.4c18.5 0.9 37.9 1.2 58.3 0.8 230.1-3.9 416.7-196.9 416.7-427.1 0.1-35.5-4.5-70.2-12.9-103.3z m-462 704.4v-0.2h-0.4l0.4 0.2z m0-596.9l-0.3 0.2h0.3v-0.2z"  horiz-adv-x="1024" />

    
    <glyph glyph-name="duoxuananniu" unicode="&#58908;" d="M533.01342 895.984025h-336.323199a187.380068 187.380068 0 0 1-138.132742-58.135868A187.380068 187.380068 0 0 1 0.421612 700.195877v-336.323199a48.046171 48.046171 0 1 1 95.251534 0V685.66191a123.238429 123.238429 0 0 0 30.389204 84.0808 123.238429 123.238429 0 0 0 84.681376 30.389203h322.269694a48.046171 48.046171 0 1 1 0 95.251535zM373.860478 357.26633l-2.402309-2.282194a46.124324 46.124324 0 0 1-1.201154-66.423831L518.959915 139.256828a46.124324 46.124324 0 0 1 65.222677 0l410.194187 410.794764a46.124324 46.124324 0 0 1 0 65.222677 46.124324 46.124324 0 0 1-65.102562 0L584.182592 274.626915a46.124324 46.124324 0 0 0-65.102562 0L437.882001 355.464598a46.24444 46.24444 0 0 1-64.021523 1.801732zM868.856157-32.868581H337.945965a72.069257 72.069257 0 0 0-72.069257 72.069257V575.516062a57.174944 57.174944 0 0 0 57.174944 57.174944h371.156673a48.046171 48.046171 0 0 1 48.046171 48.046171 48.046171 48.046171 0 0 1-48.046171 48.046172H266.35717a95.37165 95.37165 0 0 1-95.131419-95.131419v-666.520511a95.37165 95.37165 0 0 1 95.131419-95.131419h665.559587a95.37165 95.37165 0 0 1 95.011303 95.131419V299.97127a48.046171 48.046171 0 0 1-47.445594 47.445594 48.046171 48.046171 0 0 1-48.046171-47.445594v-269.779251a63.0606 63.0606 0 0 0-62.580138-63.0606z"  horiz-adv-x="1026" />

    
    <glyph glyph-name="danxuankuang" unicode="&#58911;" d="M336.87032 740.521391m45.347928 0l685.790231 0q45.347928 0 45.347928-45.347928l0 0q0-45.347928-45.347928-45.347928l-685.790231 0q-45.347928 0-45.347928 45.347928l0 0q0 45.347928 45.347928 45.347928ZM336.87032 371.259694m45.347928 0l685.790231 0q45.347928 0 45.347928-45.347928l0 0q0-45.347928-45.347928-45.347927l-685.790231 0q-45.347928 0-45.347928 45.347927l0 0q0 45.347928 45.347928 45.347928ZM336.87032 1.997997m45.347928 0l685.790231 0q45.347928 0 45.347928-45.347927l0 0q0-45.347928-45.347928-45.347928l-685.790231 0q-45.347928 0-45.347928 45.347928l0 0q0 45.347928 45.347928 45.347927ZM142.522058 896a142.522058 142.522058 0 1 1 142.522059-142.522058A142.522058 142.522058 0 0 1 142.522058 896z m0-233.217914a90.695855 90.695855 0 1 0 90.695856 90.695856 90.695855 90.695855 0 0 0-90.695856-90.695856zM142.522058 526.738303a142.522058 142.522058 0 1 1 142.522059-142.522058 142.522058 142.522058 0 0 1-142.522059 142.522058z m0-233.217914a90.695855 90.695855 0 1 0 90.695856 90.695856 90.695855 90.695855 0 0 0-90.695856-90.695856zM142.522058 157.476606a142.522058 142.522058 0 1 1 142.522059-142.522058 142.522058 142.522058 0 0 1-142.522059 142.522058z m0-233.217913a90.695855 90.695855 0 1 0 90.695856 90.695855 90.695855 90.695855 0 0 0-90.695856-90.695855zM142.522058 753.477942m-51.826203 0a51.826203 51.826203 0 1 1 103.652406 0 51.826203 51.826203 0 1 1-103.652406 0Z"  horiz-adv-x="1113" />

    
    <glyph glyph-name="duoxuankuang" unicode="&#58912;" d="M340.267533 827.59815m49.970214 0l677.328501 0q49.970214 0 49.970214-49.970214l0 0.136531q0-49.970214-49.970214-49.970214l-677.328501 0q-49.970214 0-49.970214 49.970214l0-0.136531q0 49.970214 49.970214 49.970214ZM340.267533 421.146437m49.970214 0l677.328501 0q49.970214 0 49.970214-49.970214l0 0.136531q0-49.970214-49.970214-49.970214l-677.328501 0q-49.970214 0-49.970214 49.970214l0-0.136531q0 49.970214 49.970214 49.970214ZM340.267533 14.558194m49.970214 0l677.328501 0q49.970214 0 49.970214-49.970214l0 0.136531q0-49.970214-49.970214-49.970214l-677.328501 0q-49.970214 0-49.970214 49.970214l0-0.136531q0 49.970214 49.970214 49.970214ZM301.21977 885.35061A36.044089 36.044089 0 0 1 275.688541 896a35.907558 35.907558 0 0 1-25.53123-10.64939L123.047286 757.967524 61.745029 819.815903a36.044089 36.044089 0 0 1-25.531229 10.64939A36.180619 36.180619 0 0 1 10.68257 768.753444l87.106548-87.516139A35.771027 35.771027 0 0 1 123.047286 670.724445a35.224905 35.224905 0 0 1 25.394699 10.64939L301.21977 834.424682a36.31715 36.31715 0 0 1 0 50.925928zM301.21977 472.755019a35.907558 35.907558 0 0 1-25.531229 10.512859 35.771027 35.771027 0 0 1-25.53123-10.512859L123.047286 345.508463l-61.302257 61.84838A36.044089 36.044089 0 0 1 36.2138 418.142763a36.180619 36.180619 0 0 1-25.53123-61.848379l87.106548-87.37961a35.771027 35.771027 0 0 1 50.925928 0l152.504724 153.050847a36.453681 36.453681 0 0 1 0 50.789398zM301.21977 86.646371a36.044089 36.044089 0 0 1-25.531229 10.64939 35.907558 35.907558 0 0 1-25.53123-10.64939L123.047286-40.736715l-61.302257 61.848379a35.907558 35.907558 0 0 1-25.531229 10.51286 35.771027 35.771027 0 0 1-25.53123-10.51286 36.180619 36.180619 0 0 1 0-51.062459l87.106548-87.516139a36.044089 36.044089 0 0 1 50.925928 0L301.21977 35.856973a36.453681 36.453681 0 0 1 0 50.789398z"  horiz-adv-x="1117" />

    
    <glyph glyph-name="chakan_yulan" unicode="&#58913;" d="M699.41688 896C316.235294 896 0 460.930946 0 384c0-97.227621 322.618926-512 699.41688-512s699.253197 390.383632 699.253197 512C1398.670077 460.930946 1082.434783 896 699.41688 896z m559.959079-462.567775a101.483376 101.483376 0 0 0 0-112.450128A817.104859 817.104859 0 0 0 1113.043478 155.335038c-76.112532-66.455243-230.956522-178.086957-414.28133-178.086956-168.59335 0-315.253197 98.209719-409.207161 180.051151a891.41688 891.41688 0 0 0-152.225064 171.539642 93.462916 93.462916 0 0 0 1.14578 104.429667A991.754476 991.754476 0 0 0 294.629156 607.099744c92.644501 83.805627 238.813299 183.488491 404.787724 183.488491s311.97954-99.682864 405.769821-183.324808a995.191816 995.191816 0 0 0 154.189258-173.831202zM699.41688 663.242967a279.242967 279.242967 0 1 1 279.242967-279.242967 279.242967 279.242967 0 0 1-279.242967 279.242967zM624.941176 390.219949a80.859335 80.859335 0 1 0 80.859336 80.204603 80.859335 80.859335 0 0 0-80.859336-80.204603z"  horiz-adv-x="1398" />

    
    <glyph glyph-name="fenxiang" unicode="&#58915;" d="M836.474197 194.101729a158.949788 158.949788 0 0 1-119.12237-51.103857L344.389645 360.009319a102.447637 102.447637 0 0 1 0 51.103856l372.962182 215.931787a160.989144 160.989144 0 0 1 119.12237-52.423439A159.189712 159.189712 0 0 1 997.103454 734.291084a160.989144 160.989144 0 1 1-321.978287 0 209.81372 209.81372 0 0 1 2.519204-30.230451L307.561279 491.847671a160.869182 160.869182 0 1 1-119.962104-266.675757 165.067855 165.067855 0 0 1 119.962104 53.982946l370.083092-214.132356a209.453834 209.453834 0 0 1-2.759129-31.190147 160.989144 160.989144 0 1 1 161.588955 160.149409z"  horiz-adv-x="1024" />

    
    <glyph glyph-name="fenlei" unicode="&#58905;" d="M381.5 766.4h523.4c12.8 0 23.1 10.3 23.1 23.1s-10.3 23.1-23.1 23.1H381.5c-12.8 0-23.1-10.3-23.1-23.1 0-12.7 10.4-23.1 23.1-23.1zM259.7 165.8H144.2c-25.5 0-46.2-20.7-46.2-46.2v-115.5c0-25.5 20.7-46.2 46.2-46.2h115.5c25.5 0 46.2 20.7 46.2 46.2V119.7c-0.1 25.4-20.8 46.1-46.2 46.1zM144.2 4.2V119.7h115.5v-115.5H144.2z m115.5 484.9H144.2c-25.5 0-46.2-20.7-46.2-46.2v-115.5c0-25.5 20.7-46.2 46.2-46.2h115.5c25.5 0 46.2 20.7 46.2 46.2V443c-0.1 25.4-20.8 46.1-46.2 46.1zM144.2 327.5V443h115.5v-115.5H144.2z m115.5 485H144.2c-25.5 0-46.2-20.7-46.2-46.2v-115.5c0-25.5 20.7-46.2 46.2-46.2h115.5c25.5 0 46.2 20.7 46.2 46.2V766.3c-0.1 25.4-20.8 46.2-46.2 46.2zM144.2 650.8V766.3h115.5v-115.5H144.2z m760.7-646.5H381.5c-12.8 0-23.1-10.3-23.1-23.1s10.3-23.1 23.1-23.1h523.4c12.8 0 23.1 10.3 23.1 23.1 0 12.7-10.3 23.1-23.1 23.1z m0 646.6H381.5c-12.8 0-23.1-10.3-23.1-23.1s10.3-23.1 23.1-23.1h523.4c12.8 0 23.1 10.3 23.1 23.1 0 12.7-10.3 23.1-23.1 23.1z m0-161.6H381.5c-12.8 0-23.1-10.3-23.1-23.1s10.3-23.1 23.1-23.1h523.4c12.8 0 23.1 10.3 23.1 23.1s-10.3 23.1-23.1 23.1z m0-161.7H381.5c-12.8 0-23.1-10.3-23.1-23.1s10.3-23.1 23.1-23.1h523.4c12.8 0 23.1 10.3 23.1 23.1 0 12.7-10.3 23.1-23.1 23.1z m0-161.6H381.5c-12.8 0-23.1-10.3-23.1-23.1s10.3-23.1 23.1-23.1h523.4c12.8 0 23.1 10.3 23.1 23.1S917.7 166 904.9 166z"  horiz-adv-x="1024" />

    
    <glyph glyph-name="quanbuwenjian" unicode="&#58980;" d="M1080.888889 766.293333H541.582222L427.804444 896H56.888889a56.888889 56.888889 0 0 1-56.888889-56.888889v-910.222222a56.888889 56.888889 0 0 1 56.888889-56.888889h1024a56.888889 56.888889 0 0 1 56.888889 56.888889V709.404444a56.888889 56.888889 0 0 1-56.888889 56.888889z"  horiz-adv-x="1137" />

    
    <glyph glyph-name="quanping" unicode="&#58930;" d="M237.248 704H352a32 32 0 1 1 0 64H160a32 32 0 0 1-32-32v-192a32 32 0 1 1 64 0v114.752l137.36-137.36a32 32 0 1 1 45.232 45.264L237.248 704zM832 658.752V544a32 32 0 1 1 64 0V736a32 32 0 0 1-32 32H672a32 32 0 1 1 0-64h114.752l-137.36-137.36a32 32 0 1 1 45.264-45.232L832 658.752zM237.248 64H352a32 32 0 1 0 0-64H160a32 32 0 0 0-32 32V224a32 32 0 1 0 64 0v-114.752l137.36 137.36a32 32 0 1 0 45.232-45.264L237.248 64zM832 109.248V224a32 32 0 1 0 64 0v-192a32 32 0 0 0-32-32H672a32 32 0 1 0 0 64h114.752l-137.36 137.36a32 32 0 1 0 45.264 45.232L832 109.248z"  horiz-adv-x="1024" />

    
    <glyph glyph-name="tuichuquanping" unicode="&#58935;" d="M749.248 192H864a32 32 0 1 1 0 64H672a32 32 0 0 1-32-32v-192a32 32 0 1 1 64 0v114.752l137.36-137.36a32 32 0 1 1 45.232 45.264L749.248 192zM320 146.752V32a32 32 0 1 1 64 0V224a32 32 0 0 1-32 32H160a32 32 0 1 1 0-64h114.752l-137.36-137.36a32 32 0 1 1 45.264-45.232L320 146.752zM749.248 576H864a32 32 0 1 0 0-64H672a32 32 0 0 0-32 32V736a32 32 0 1 0 64 0v-114.752l137.36 137.36a32 32 0 1 0 45.232-45.264L749.248 576zM320 621.248V736a32 32 0 1 0 64 0v-192a32 32 0 0 0-32-32H160a32 32 0 1 0 0 64h114.752l-137.36 137.36a32 32 0 1 0 45.264 45.232L320 621.248z"  horiz-adv-x="1024" />

    
    <glyph glyph-name="suijiyonghu" unicode="&#58904;" d="M936.70987 95.585244q5.104686-15.314058 7.657029-39.306082t2.552343-48.494516-3.57328-45.942173-10.71984-32.66999q-5.104686-7.14656-28.075773-14.293121t-56.662014-13.782652-75.549352-11.740778-83.716849-9.188435-81.164506-6.125623-68.91326-2.041874-68.402792 2.552343-80.143569 6.125623-81.674975 8.167498-74.017946 9.698903-56.662014 10.209372-29.09671 10.209372q-10.209372 8.167498-15.824526 50.025922t3.57328 108.219342q6.125623 37.774676 30.628116 57.172483t57.172483 31.138584 67.892323 20.929212 62.787637 26.544367q21.439681 13.272183 32.66999 25.52343t16.334995 24.502493 5.104686 25.52343-1.020937 29.607178q-2.041874 23.481555-16.334995 37.264207t-30.628116 28.075773q-8.167498 7.14656-14.803589 19.908275t-11.740778 26.033898q-5.104686 15.314058-10.209372 32.66999-9.188435 1.020937-18.376869 6.125623-8.167498 5.104686-16.334995 14.803589t-13.272183 27.054835-2.552343 31.649053 8.677966 24.502493q6.125623 11.230309 17.355932 21.439681 0 38.795613 4.083749 77.591226 4.083749 32.66999 14.293121 69.934197t31.649053 66.871386q19.397807 28.586241 42.879362 46.452642t48.494516 28.075773 49.515454 13.782652 47.984048 3.57328q29.607178 0 56.662014-6.636092t50.025922-17.866401 41.347956-25.52343 30.628116-28.586241q25.52343-32.66999 38.285145-72.48654t17.866401-74.528415q5.104686-40.837488 4.083749-81.674975 9.188435-5.104686 15.314058-13.272183 5.104686-7.14656 9.188435-18.376869t2.041874-27.565304q-2.041874-22.460618-10.209372-34.711864t-17.355932-19.397807q-11.230309-8.167498-23.481555-11.230309-5.104686-17.355932-10.209372-32.66999-5.104686-13.272183-11.740778-26.033898t-14.803589-19.908275q-18.376869-15.314058-30.628116-26.033898t-16.334995-36.24327q-3.062812-15.314058-2.552343-31.138584t8.167498-31.649053 23.481555-30.117647 44.410768-25.52343q24.502493-10.209372 54.62014-18.376869t58.19342-18.887338 50.025922-26.544367 31.138584-43.389831zM541.607178 318.149551q18.376869 0 31.649053 13.272183t13.272183 32.66999-13.272183 32.66999-31.649053 13.272183q-19.397807 0-32.66999-13.272183t-13.272183-32.66999 13.272183-32.66999 32.66999-13.272183zM579.381854 502.939182q-1.020937 12.251246 14.293121 26.033898t34.711864 30.117647 35.732802 37.264207 18.376869 47.473579q1.020937 28.586241-6.125623 54.109671t-24.502493 44.410768-44.410768 29.607178-63.808574 10.71984q-44.921236 0-75.549352-16.334995t-49.004985-38.795613-25.52343-47.473579-7.14656-41.347956q1.020937-19.397807 12.251246-28.075773t25.012961-9.188435 25.012961 7.657029 11.230309 22.460618q0 9.188435 5.615155 21.95015t15.314058 25.012961 23.481555 20.418744 30.117647 8.167498q33.690927 0 53.599202-16.845464t18.887338-42.368893q0-19.397807-15.824526-34.201396t-34.711864-30.117647-35.222333-32.66999-17.355932-40.837488l0-27.565304q1.020937-11.230309 11.230309-21.439681t27.565304-11.230309q17.355932 1.020937 27.054835 11.230309t9.698903 24.502493l0 17.355932z"  horiz-adv-x="1024" />

    
    <glyph glyph-name="jieshu" unicode="&#58907;" d="M718.9248 656.672c24.1984-17.2096 45.7152-36.704 64.5376-58.4896s34.9568-45.312 48.4032-70.592c13.4464-25.28 23.6608-52.032 30.6496-80.2688 6.9952-28.2368 10.4896-56.8704 10.4896-85.9136 0-50.016-9.5424-96.9408-28.64-140.7744-19.0848-43.8336-44.9088-82.016-77.4464-114.5536s-70.7264-58.3552-114.5536-77.4464C608.5376 9.5424 561.6192 0 511.5968 0c-49.472 0-96.1344 9.5424-139.9616 28.64-43.8336 19.0848-82.1504 44.9088-114.9568 77.4464s-58.6176 70.7264-77.4464 114.5536-28.2368 90.7584-28.2368 140.7744c0 28.4992 3.36 56.4736 10.0864 83.8976 6.72 27.4304 16.2624 53.5104 28.64 78.2464 12.3712 24.7424 27.6928 47.872 45.984 69.376 18.2848 21.5168 38.72 40.8768 61.3056 58.0928 11.84 8.6016 24.608 11.8272 38.3232 9.6768 13.7152-2.1504 24.8704-8.8768 33.472-20.1664 8.608-11.296 11.84-23.936 9.6896-37.92-2.1568-13.984-8.8768-25.28-20.1728-33.8816C324.4352 544 298.4896 513.6128 280.4736 477.5808c-18.016-36.032-27.0336-74.7584-27.0336-116.1664 0-35.5008 6.7264-68.9728 20.1728-100.4352 13.4464-31.4624 31.8656-58.8928 55.2576-82.2848 23.3984-23.392 50.8224-41.952 82.2848-55.6608 31.4624-13.7216 64.9344-20.576 100.4288-20.576 35.5008 0 68.9792 6.8544 100.4352 20.576 31.4624 13.7152 58.8928 32.2688 82.2848 55.6608 23.3984 23.392 41.952 50.8224 55.6608 82.2848 13.7216 31.4624 20.576 64.9344 20.576 100.4352 0 41.952-9.6832 81.6128-29.0432 118.9888s-46.5216 68.1664-81.472 92.3712c-11.84 8.064-18.9632 19.0912-21.3824 33.0688-2.4192 13.9904 0.4032 26.8928 8.4672 38.7264 8.0704 11.296 19.0912 18.1504 33.0752 20.5696C694.1824 667.5648 707.0912 664.736 718.9248 656.672L718.9248 656.672zM511.5968 358.9952c-13.984 0-25.9456 4.9728-35.8912 14.9184-9.952 9.952-14.9248 21.92-14.9248 35.904L460.7808 716.3712c0 13.984 4.9728 26.08 14.9248 36.3008S497.6128 768 511.5968 768c14.528 0 26.7648-5.1072 36.704-15.328 9.9584-10.2208 14.9312-22.3168 14.9312-36.3008l0-306.5536c0-13.984-4.9728-25.952-14.9312-35.904C538.3552 363.968 526.1184 358.9952 511.5968 358.9952L511.5968 358.9952zM511.5968 358.9952"  horiz-adv-x="1024" />

    
    <glyph glyph-name="lock" unicode="&#59196;" d="M877.714286 438.857143h-77.714286V694.857143c0 80.8-65.485714 146.285714-146.285714 146.285714H370.285714c-80.8 0-146.285714-65.485714-146.285714-146.285714v-256h-77.714286c-20.228571 0-36.571429-16.342857-36.571428-36.571429v-438.857143c0-20.228571 16.342857-36.571429 36.571428-36.571428h731.428572c20.228571 0 36.571429 16.342857 36.571428 36.571428V402.285714c0 20.228571-16.342857 36.571429-36.571428 36.571429zM306.285714 694.857143c0 35.314286 28.685714 64 64 64h283.428572c35.314286 0 64-28.685714 64-64v-256H306.285714V694.857143z m525.714286-685.714286H192V356.571429h640v-347.428572zM480 168v-60.571429c0-5.028571 4.114286-9.142857 9.142857-9.142857h45.714286c5.028571 0 9.142857 4.114286 9.142857 9.142857v60.571429a54.868571 54.868571 0 1 1-64 0z"  horiz-adv-x="1024" />

    
    <glyph glyph-name="unlock" unicode="&#59229;" d="M877.714286 438.857143H306.285714V694.857143c0 35.314286 28.685714 64 64 64h283.428572c35.314286 0 64-28.685714 64-64v-77.714286c0-5.028571 4.114286-9.142857 9.142857-9.142857h64c5.028571 0 9.142857 4.114286 9.142857 9.142857v77.714286c0 80.8-65.485714 146.285714-146.285714 146.285714H370.285714c-80.8 0-146.285714-65.485714-146.285714-146.285714v-256h-77.714286c-20.228571 0-36.571429-16.342857-36.571428-36.571429v-438.857143c0-20.228571 16.342857-36.571429 36.571428-36.571428h731.428572c20.228571 0 36.571429 16.342857 36.571428 36.571428V402.285714c0 20.228571-16.342857 36.571429-36.571428 36.571429z m-45.714286-429.714286H192V356.571429h640v-347.428572zM480 168v-60.571429c0-5.028571 4.114286-9.142857 9.142857-9.142857h45.714286c5.028571 0 9.142857 4.114286 9.142857 9.142857v60.571429a54.868571 54.868571 0 1 1-64 0z"  horiz-adv-x="1024" />

    
    <glyph glyph-name="notebook" unicode="&#58902;" d="M810.666667 840.533333L392.533333 840.533333l-42.666667 0-85.333333 0c-46.933333 0-85.333333-38.4-85.333333-85.333333l0-42.666667L166.4 712.533333c-12.8 0-21.333333-8.533333-21.333333-21.333333 0-12.8 8.533333-21.333333 21.333333-21.333333l21.333333 0 0-85.333333L166.4 584.5333330000001c-12.8 0-21.333333-8.533333-21.333333-21.333333s8.533333-21.333333 21.333333-21.333333l21.333333 0 0-85.333333L166.4 456.533333c-12.8 0-21.333333-8.533333-21.333333-21.333333 0-12.8 8.533333-21.333333 21.333333-21.333333l21.333333 0 0-85.333333L166.4 328.53333299999997c-12.8 0-21.333333-8.533333-21.333333-21.333333 0-12.8 8.533333-21.333333 21.333333-21.333333l21.333333 0 0-85.333333L166.4 200.53333299999997c-12.8 0-21.333333-8.533333-21.333333-21.333333 0-12.8 8.533333-21.333333 21.333333-21.333333l21.333333 0 0-85.333333L166.4 72.53333299999997c-12.8 0-21.333333-8.533333-21.333333-21.333333 0-12.8 8.533333-21.333333 21.333333-21.333333l21.333333 0 0-42.666667c0-46.933333 38.4-85.333333 85.333333-85.333333l85.333333 0 42.666667 0L810.666667-98.133333c46.933333 0 85.333333 38.4 85.333333 85.333333L896 759.466667C891.733333 806.4 857.6 840.533333 810.666667 840.533333zM354.133333-34.13333299999999l-85.333333 0c-21.333333 0-42.666667 17.066667-42.666667 42.666667l0 42.666667 21.333333 0c12.8 0 21.333333 8.533333 21.333333 21.333333 0 12.8-8.533333 21.333333-21.333333 21.333333L226.133333 93.866667l0 85.333333 21.333333 0c12.8 0 21.333333 8.533333 21.333333 21.333333 0 12.8-8.533333 21.333333-21.333333 21.333333L226.133333 221.866667l0 85.333333 21.333333 0c12.8 0 21.333333 8.533333 21.333333 21.333333 0 12.8-8.533333 21.333333-21.333333 21.333333L226.133333 349.866667l0 85.333333 21.333333 0c12.8 0 21.333333 8.533333 21.333333 21.333333 0 12.8-8.533333 21.333333-21.333333 21.333333L226.133333 477.866667l0 85.333333 21.333333 0c12.8 0 21.333333 8.533333 21.333333 21.333333S260.266667 593.066667 247.466667 593.066667L226.133333 593.066667l0 85.333333 21.333333 0c12.8 0 21.333333 8.533333 21.333333 21.333333 0 12.8-8.533333 21.333333-21.333333 21.333333L226.133333 721.066667l0 42.666667c0 21.333333 17.066667 42.666667 42.666667 42.666667l85.333333 0L354.133333-34.13333299999999zM853.333333 8.53333299999997c0-21.333333-17.066667-42.666667-42.666667-42.666667L392.533333-34.13333299999999 392.533333 802.133333 810.666667 802.133333c21.333333 0 42.666667-17.066667 42.666667-42.666667L853.333333 8.53333299999997z"  horiz-adv-x="1024" />

    
    <glyph glyph-name="note" unicode="&#59011;" d="M217.6 772.608H783.872v-155.648l-66.048-62.976V706.56H250.88v-43.008l31.744 13.824 30.208 13.312 26.112-60.416-30.208-13.312L250.88 591.8720000000001v-34.816l31.744 13.824L312.32 583.6800000000001l26.112-60.416-30.208-13.312L250.88 485.376v-38.4l31.744 13.824 30.208 13.312 26.112-60.416-30.208-13.312-57.856-25.6v-34.816l31.744 13.824 30.208 13.312 26.112-60.416-30.208-13.312-57.856-24.576v-43.52l31.744 13.824 30.208 13.312 26.112-60.416-30.208-13.312L250.88 153.60000000000002v-75.264h467.968v144.896l66.048 62.976v-273.408H184.832V97.27999999999997H115.712L102.4 160.25599999999997l82.432 35.84v15.872H115.712L102.4 275.456l82.432 35.84v7.168H115.712L102.4 381.952l82.432 35.84v11.264H115.712L102.4 492.032l82.432 35.84v7.168H115.712L102.4 598.528l82.432 35.84V772.096h32.768v0.512z m178.176-364.544v-36.864h89.088v36.864H395.776z m0 80.384v-36.864h163.84v36.864h-163.84z m0 80.384v-36.864h237.056v36.864H395.776z m0 77.312V609.28h237.056v36.864H395.776z m93.184-478.208l52.736 2.56 52.736 2.56-47.616 49.664-47.616 49.664-5.12-52.224-5.12-52.224z m357.376 437.76l-307.712-294.4 94.72-99.328 307.712 294.4-94.72 99.328z"  horiz-adv-x="1024" />

    
    <glyph glyph-name="zuzhi" unicode="&#59154;" d="M738 286v61a8 8 0 0 1-8 8H294a8 8 0 0 1-8-8v-61h96c17.673 0 32-14.327 32-32v-286c0-17.673-14.327-32-32-32H96c-17.673 0-32 14.327-32 32V254c0 17.673 14.327 32 32 32h126V387c0 17.673 14.327 32 32 32h226v63H369c-17.673 0-32 14.327-32 32V800c0 17.673 14.327 32 32 32h286c17.673 0 32-14.327 32-32v-286c0-17.673-14.327-32-32-32H544v-63h226c17.673 0 32-14.327 32-32v-101h126c17.673 0 32-14.327 32-32v-286c0-17.673-14.327-32-32-32H642c-17.673 0-32 14.327-32 32V254c0 17.673 14.327 32 32 32h96zM409 768a8 8 0 0 1-8-8v-206a8 8 0 0 1 8-8h206a8 8 0 0 1 8 8V760a8 8 0 0 1-8 8H409zM136 222a8 8 0 0 1-8-8v-206a8 8 0 0 1 8-8h206a8 8 0 0 1 8 8V214a8 8 0 0 1-8 8H136z m546 0a8 8 0 0 1-8-8v-206a8 8 0 0 1 8-8h206a8 8 0 0 1 8 8V214a8 8 0 0 1-8 8H682z"  horiz-adv-x="1024" />

    
    <glyph glyph-name="yanzhengma1" unicode="&#58941;" d="M225.5104 643.27168v110.5408a30.30016 30.30016 0 0 0 30.21312 30.21312h561.98656a30.30528 30.30528 0 0 0 30.21824-30.21312v-110.55104h56.3712V780.34432c0 33.23392-27.20256 60.43136-60.44672 60.43136H229.5808c-33.24416 0-60.43136-27.19744-60.43136-60.43136v-137.07776h56.36096v0.00512z m622.41792-484.21376v-120.38144a30.3104 30.3104 0 0 0-30.21824-30.208H255.72352a30.30528 30.30528 0 0 0-30.21312 30.208v120.38144H169.14944v-146.91328c0-33.23392 27.19744-60.43648 60.43136-60.43648h614.272c33.23904 0 60.44672 27.19744 60.44672 60.43648v146.91328h-56.3712zM300.47232 248.65792H243.1744V464.6656c-20.9408-19.55328-45.60896-34.02752-74.02496-43.43808V473.2416c14.9504 4.88448 31.19104 14.1824 48.73728 27.83744 17.54112 13.66528 29.568 29.60384 36.09088 47.81568h46.4896v-300.2368z m319.86688 53.24288v-53.25312H419.456c2.19136 20.14208 8.71424 39.20896 19.58912 57.20576 10.86464 18.0736 32.34304 41.92768 64.4352 71.7312 25.84576 24.05888 41.6512 40.38144 47.52896 48.9472 7.87456 11.81696 11.82208 23.51616 11.82208 35.08224 0 12.75904-3.44064 22.59456-10.30144 29.46048-6.8864 6.85056-16.31744 10.2912-28.43648 10.2912-11.95008 0-21.48864-3.59936-28.55936-10.78784-7.07072-7.21408-11.15648-19.17952-12.2368-35.90656L426.1888 460.3648c3.40992 31.53408 14.08 54.18496 32.01024 67.90144 17.9456 13.7472 40.38144 20.60288 67.31264 20.60288 29.50144 0 52.66944-7.936 69.5552-23.8592 16.85504-15.90272 25.28256-35.6864 25.28256-59.3408a103.40352 103.40352 0 0 0-7.25504-38.43072c-4.84352-12.17024-12.4672-24.92928-22.94784-38.25664-6.92736-8.83712-19.43552-21.53984-37.51424-38.16448-18.05824-16.55296-29.51168-27.61728-34.34496-33.01888a98.74432 98.74432 0 0 1-11.72992-15.91808h113.78176v0.02048z m85.33504 26.09664l55.46496 6.72768c1.77664-14.14144 6.528-24.95488 14.24896-32.4096 7.77728-7.46496 17.152-11.20768 28.16-11.20768 11.83232 0 21.7856 4.50048 29.85984 13.42976 8.10496 8.99072 12.15488 21.0944 12.15488 36.31104 0 14.42304-3.88608 25.83552-11.6224 34.25792-7.75168 8.45824-17.2032 12.68224-28.34432 12.68224-7.35232 0-16.10752-1.41824-26.32192-4.28544l6.3232 46.69952c15.50336-0.40448 27.30496 2.96448 35.47648 10.09664 8.14592 7.13728 12.2368 16.60416 12.2368 28.45184 0 10.04544-2.99008 18.08896-8.93952 24.064-6.02112 5.98016-13.9776 8.96512-23.8848 8.96512-9.78432 0-18.16576-3.38432-25.09824-10.19392-6.90688-6.77888-11.11552-16.7168-12.63104-29.76256l-52.8128 8.96c3.67104 18.06336 9.22624 32.54272 16.62464 43.3664 7.424 10.78272 17.73568 19.28704 31.0016 25.46688 13.2608 6.18496 28.10368 9.27744 44.55424 9.27744 28.14464 0 50.688-8.97536 67.712-26.9312 13.9776-14.6688 20.99712-31.26272 20.99712-49.7408 0-26.24512-14.34624-47.1808-43.02848-62.81216 17.12128-3.67616 30.83264-11.91424 41.09824-24.69888 10.2656-12.77952 15.40096-28.20608 15.40096-46.27456 0-26.26048-9.59488-48.62464-28.75392-67.0976-19.16928-18.49856-43.02336-27.74528-71.58272-27.74528-27.0592 0-49.46944 7.79776-67.3024 23.33184-17.80736 15.57504-28.14464 35.94752-30.99136 61.07136z"  horiz-adv-x="1024" />

    
    <glyph glyph-name="cloud-folder" unicode="&#59711;" d="M415.104 368.064A64.048 64.048 0 0 1 414.72 240H608v0.544c48 4.352 79.04 41.872 79.04 87.552 0 54.928-50.192 97.008-105.056 86.352-42.48 87.456-175.68 50.88-166.88-46.4zM470.112 656l-36.416 80H80v-736h880V656H470.112zM880 80H160V656h222.208l36.4-80H880v-496z"  horiz-adv-x="1024" />

    
    <glyph glyph-name="jieping" unicode="&#58886;" d="M224.3 351.9h-0.5c-17.4 0-31.7-14.2-31.7-31.7v-187.8c-0.1-1.2-0.2-2.3-0.2-3.5v-0.5c0-6.1 1.7-11.8 4.7-16.6 5.5-9.3 15.7-15.5 27.2-15.5h0.5c1.7 0 3.4 0.1 5 0.4h186.5c17.4 0 31.7 14.2 31.7 31.7v0.5c0 17.4-14.2 31.7-31.7 31.7H256V320.2c0 17.4-14.2 31.7-31.7 31.7zM767.9 449.1c0-17.4 14.2-31.7 31.7-31.7h0.5c17.4 0 31.7 14.2 31.7 31.7V636.2c0.2 1.4 0.3 2.8 0.3 4.3v0.5c0 8.2-3.2 15.7-8.3 21.3-5.8 6.5-14.3 10.7-23.7 10.7h-0.5c-1.5 0-2.9-0.1-4.3-0.3H608.2c-17.4 0-31.7-14.2-31.7-31.7v-0.5c0-17.4 14.2-31.7 31.7-31.7h159.7v-159.7zM638.9 0a32.2 32.1 0 1 1 64.4 0 32.2 32.1 0 1 1-64.4 0ZM832.4 797.8H192.2c-70.4 0-128-57.6-128-128v-574.1c0-70.4 57.6-128 128-128h350v0.3c17.8 0 32.2 14.4 32.2 32.1 0 17.7-14.4 32.1-32.2 32.1H192c-35.2 0-64 28.8-64 64v574c0 35.2 28.8 64 64 64h641.1c35.2 0 64-28.8 64-64v-574.1c0-35.2-28.8-64-64-64h-33.2c-17.8 0-32.2-14.4-32.2-32.1 0-17.7 14.4-32.1 32.2-32.1v-0.2h32.4c70.4 0 128 57.6 128 128V669.8c0.1 70.4-57.5 128-127.9 128z"  horiz-adv-x="1024" />

    
    <glyph glyph-name="kongzhitai" unicode="&#58924;" d="M806.31-108.13H217.69c-109.1 0-197.83 88.74-197.83 197.81V678.31c0 109.07 88.74 197.82 197.83 197.82h588.62c109.1 0 197.83-88.75 197.83-197.82v-588.64c0-109.07-88.73-197.8-197.83-197.8zM217.69 798.43c-66.25 0-120.13-53.88-120.13-120.11v-588.64c0-66.22 53.88-120.1 120.13-120.1h588.62c66.25 0 120.13 53.88 120.13 120.1V678.31c0 66.24-53.88 120.11-120.13 120.11H217.69v0.01zM494.93 595.92h77.71v-420.77h-77.71zM533.78 571.07m-81.76 0a81.76 81.76 0 1 1 163.52 0 81.76 81.76 0 1 1-163.52 0ZM730.78 595.92h77.71v-420.77h-77.71zM769.62 222.02m-81.76 0a81.76 81.76 0 1 1 163.52 0 81.76 81.76 0 1 1-163.52 0ZM270.58 595.92h77.71v-420.77h-77.71zM309.44 385.53m-81.76 0a81.76 81.76 0 1 1 163.52 0 81.76 81.76 0 1 1-163.52 0Z"  horiz-adv-x="1024" />

    
    <glyph glyph-name="gerenziliao" unicode="&#58910;" d="M951.466667 765.866667H72.533333C32 765.866667 0 731.733333 0 693.333333v-616.533333c0-40.533333 32-72.533333 72.533333-72.533333h876.8c40.533333 0 72.533333 32 72.533334 72.533333V693.333333c2.133333 38.4-29.866667 72.533333-70.4 72.533334z m-646.4-183.466667c55.466667 0 108.8-49.066667 108.8-102.4s-51.2-106.666667-108.8-106.666667c-55.466667 0-106.666667 59.733333-106.666667 113.066667s51.2 96 106.666667 96zM501.333333 149.333333H110.933333v21.333334c0 104.533333 61.866667 183.466667 196.266667 183.466666 134.4 0 196.266667-74.666667 196.266667-174.933333-2.133333-4.266667-2.133333-25.6-2.133334-29.866667z m411.733334 83.2c0-8.533333-8.533333-17.066667-17.066667-17.066666H610.133333c-8.533333 0-17.066667 8.533333-17.066666 17.066666v34.133334c0 8.533333 8.533333 17.066667 17.066666 17.066666H896c8.533333 0 17.066667-8.533333 17.066667-17.066666v-34.133334z m0 115.2c0-8.533333-8.533333-17.066667-17.066667-17.066666H610.133333c-8.533333 0-17.066667 8.533333-17.066666 17.066666v34.133334c0 8.533333 8.533333 17.066667 17.066666 17.066666H896c8.533333 0 17.066667-8.533333 17.066667-17.066666v-34.133334z m0 113.066667c0-8.533333-8.533333-17.066667-17.066667-17.066667H610.133333c-8.533333 0-17.066667 8.533333-17.066666 17.066667v34.133333c0 8.533333 8.533333 17.066667 17.066666 17.066667H896c8.533333 0 17.066667-8.533333 17.066667-17.066667v-34.133333z"  horiz-adv-x="1024" />

    
    <glyph glyph-name="weibiaoti-" unicode="&#58881;" d="M798.72-74.24H225.28c-48.64 0-89.6 40.96-89.6 89.6V729.6C135.68 778.24 174.08 819.2 225.28 819.2h573.44c48.64 0 89.6-40.96 89.6-89.6v-714.24c0-48.64-38.4-89.6-89.6-89.6zM225.28 788.48c-33.28 0-58.88-25.6-58.88-58.88v-714.24c0-33.28 25.6-58.88 58.88-58.88h573.44c33.28 0 58.88 25.6 58.88 58.88V729.6c0 33.28-25.6 58.88-58.88 58.88H225.28zM780.8 535.04H522.24c-7.68 0-15.36 7.68-15.36 15.36s7.68 15.36 15.36 15.36h258.56c7.68 0 15.36-7.68 15.36-15.36s-7.68-15.36-15.36-15.36zM780.8 348.16H522.24c-7.68 0-15.36 7.68-15.36 15.36s7.68 15.36 15.36 15.36h258.56c7.68 0 15.36-7.68 15.36-15.36 0-10.24-7.68-15.36-15.36-15.36zM780.8 168.96H522.24c-7.68 0-15.36 7.68-15.36 15.36s7.68 15.36 15.36 15.36h258.56c7.68 0 15.36-7.68 15.36-15.36 0-10.24-7.68-15.36-15.36-15.36zM314.88 491.52l-43.52 43.52c-5.12 5.12-5.12 15.36 0 20.48 5.12 5.12 15.36 5.12 20.48 0l43.52-43.52c5.12-5.12 5.12-15.36 0-20.48-5.12-5.12-12.8-5.12-20.48 0zM432.64 586.24l-94.72-94.72c-5.12-5.12-15.36-5.12-20.48 0-5.12 5.12-5.12 15.36 0 20.48l94.72 94.72c5.12 5.12 15.36 5.12 20.48 0 5.12-5.12 5.12-12.8 0-20.48zM314.88 304.64l-43.52 43.52c-5.12 5.12-5.12 15.36 0 20.48 5.12 5.12 15.36 5.12 20.48 0l43.52-43.52c5.12-5.12 5.12-15.36 0-20.48-5.12-7.68-12.8-7.68-20.48 0zM432.64 399.36l-94.72-94.72c-5.12-5.12-15.36-5.12-20.48 0-5.12 5.12-5.12 15.36 0 20.48l94.72 94.72c5.12 5.12 15.36 5.12 20.48 0 5.12-5.12 5.12-15.36 0-20.48zM314.88 125.44l-43.52 43.52c-5.12 5.12-5.12 15.36 0 20.48 5.12 5.12 15.36 5.12 20.48 0l43.52-43.52c5.12-5.12 5.12-15.36 0-20.48-5.12-5.12-12.8-5.12-20.48 0zM432.64 220.16l-94.72-94.72c-5.12-5.12-15.36-5.12-20.48 0-5.12 5.12-5.12 15.36 0 20.48l94.72 94.72c5.12 5.12 15.36 5.12 20.48 0 5.12-5.12 5.12-15.36 0-20.48z"  horiz-adv-x="1024" />

    
    <glyph glyph-name="edu-biji" unicode="&#59001;" d="M764.62811629 895.9893085H139.30448643s-78.64217259-1.05206919-89.42588187-90.47795107v-831.52919278s-0.78905191-95.86980571 105.99597174-95.86980571h728.03188536s84.42855317 4.7343114 91.13549433 91.66152892V642.30912301l-64.965273-69.56807576-0.52603461-629.13738071-794.83827947 0.78905191V831.68157875h581.92577543l67.98997195 64.30772975m0 0M843.53330618 851.93391082l98.10545276-76.40652557 20.51534937 27.35379918s15.51802068 20.51534936 0 45.37048419c0 0-14.33444284 23.67155697-38.53203438 37.21694789 0 0-32.87716246 18.01668501-54.70759834-3.68224219l-25.38116941-29.8524635m0 0M910.60271759 735.15422978L743.45522368 513.29913753s-14.86047743-27.35379916-41.03069875-39.71561223l-73.9078612-35.37582681s-19.85780612-9.99465738-24.19759156 17.35914178l13.01935633 81.40385424s-1.18357785 14.86047743 18.67422828 41.03069874l177.01064264 234.2169053 97.57941817-77.06406877m0 0M291.85452021 318.92935310999997h437.92380388s14.33444284 3.6822422 13.67689959-20.51534936v-20.12082343s-3.15620759-11.17823524-19.85780613-8.67957087l-427.40311189-0.39452597s-14.86047743-0.92056056-16.17556393 13.41388229v26.30172996c0.13150865 0 2.49866435 9.99465738 11.83577848 9.99465738m0 0M291.85452021 156.12164464h437.92380388s14.33444284 3.6822422 13.67689959-20.51534937v-20.12082341s-3.15620759-11.17823524-19.85780613-8.6795709l-427.40311189-0.39452595s-14.86047743-0.92056056-16.17556393 13.41388228v26.30172997c0.13150865 0.13150865 2.49866435 9.99465738 11.83577848 9.99465738m0 0"  horiz-adv-x="1024" />

    
    <glyph glyph-name="tiwen2" unicode="&#58962;" d="M874.060166 21.91513A508.031111 508.031111 0 0 0 512.383999-127.998208a514.994299 514.994299 0 0 0-226.022004 52.403108l-166.809308-21.811162a78.873462 78.873462 0 0 0-88.422245 88.447846l21.811161 166.911708a511.794304 511.794304 0 1 0 821.118563-136.038162z m-45.23512 678.910812a447.999216 447.999216 0 0 1-714.46915-522.495086 31.948744 31.948744 0 0 0 3.251194-18.815967l-23.039959-176.639691a14.873574 14.873574 0 0 1 3.583993-11.775979 14.694374 14.694374 0 0 1 11.084781-5.119991l178.662087 23.244759a22.451161 22.451161 0 0 0 4.147193 0.307199 31.359945 31.359945 0 0 0 14.643174-3.583993 450.559212 450.559212 0 0 1 205.74684-49.843113A447.999216 447.999216 0 0 1 828.825046 700.825942z m-221.260413-341.196203q-10.239982-7.679987-20.147165-15.923172a123.161384 123.161384 0 0 1-42.598325-93.951836 31.999944 31.999944 0 1 0-63.999888 0 188.031671 188.031671 0 0 0 65.484685 143.02695c6.911988 5.75999 14.335975 11.59678 21.836762 17.407969a216.85722 216.85722 0 0 1 55.577502 54.476705 87.577447 87.577447 0 0 1-11.31518 95.539033 131.63497 131.63497 0 0 1-99.609425 38.604732c-116.428596 0-121.420588-93.823836-121.599788-104.524617a35.097539 35.097539 0 0 0-32.307143-31.539145 31.871944 31.871944 0 0 0-31.667145 31.999944c0.2048 58.111898 39.270331 167.986906 185.574076 167.986906a189.567668 189.567668 0 0 0 149.119739-62.003091 151.526135 151.526135 0 0 0 17.331169-168.012506 267.698732 267.698732 0 0 0-71.679874-73.087872z m-82.278256-202.239646a29.926348 29.926348 0 0 0 16.307171-16.332772 32.230344 32.230344 0 0 0-42.470325-42.495925 30.003147 30.003147 0 0 0-16.307172 16.332771 32.255944 32.255944 0 0 0 42.470326 42.572725z"  horiz-adv-x="1024" />

    
    <glyph glyph-name="touping" unicode="&#58898;" d="M1077.470275 14.361934h-194.392692a36.132471 36.132471 0 0 0-36.13247 36.132471 36.85512 36.85512 0 0 0 36.13247 36.132471h176.326457V823.729277H72.264941v-737.102401h176.326457a36.85512 36.85512 0 0 0 36.132471-36.132471 36.132471 36.132471 0 0 0-36.132471-36.132471H54.198706a54.198706 54.198706 0 0 0-54.198706 53.476057V845.40876A53.476057 53.476057 0 0 0 54.198706 895.994219h1023.271569a53.476057 53.476057 0 0 0 54.198706-52.753407v-775.402821a54.198706 54.198706 0 0 0-54.198706-53.476057zM744.328896-127.277351H387.340086a72.264941 72.264941 0 0 0-72.264942 72.264942v216.794824a72.264941 72.264941 0 0 0 72.264942 72.264941h356.98881a72.264941 72.264941 0 0 0 72.264941-72.264941v-216.794824a72.264941 72.264941 0 0 0-72.264941-72.264942z m-356.98881 289.059766v-216.794824h356.26616v216.794824z m356.98881 0zM421.304608 357.620406a36.85512 36.85512 0 0 0-26.015379 10.839741 36.85512 36.85512 0 0 0 0 51.308108 242.810203 242.810203 0 0 0 341.090523 0 36.85512 36.85512 0 0 0 0-51.308108 36.132471 36.132471 0 0 0-51.308108 0 169.099963 169.099963 0 0 1-238.474307 0 35.409821 35.409821 0 0 0-25.292729-10.839741zM870.792543 468.908415a36.85512 36.85512 0 0 0-26.015379 10.839742 394.56658 394.56658 0 0 1-557.885347 0 36.277001 36.277001 0 1 0-51.308108 51.308108 468.27682 468.27682 0 0 0 660.501564 0 36.132471 36.132471 0 0 0 0-51.308108 35.409821 35.409821 0 0 0-25.29273-10.839742z"  horiz-adv-x="1131" />

    
    <glyph glyph-name="yulan" unicode="&#58984;" d="M614.4-128H128c-70.656 0-128 57.344-128 128V768C0 838.656 57.344 896 128 896h614.4c70.656 0 128-57.344 128-128v-230.4c0-14.336-11.264-25.6-25.6-25.6s-25.6 11.264-25.6 25.6V768c0 42.496-34.304 76.8-76.8 76.8H128c-42.496 0-76.8-34.304-76.8-76.8v-768c0-42.496 34.304-76.8 76.8-76.8h486.4c14.336 0 25.6-11.264 25.6-25.6s-11.264-25.6-25.6-25.6zM691.2 640H179.2c-14.336 0-25.6 11.264-25.6 25.6s11.264 25.6 25.6 25.6h512c14.336 0 25.6-11.264 25.6-25.6s-11.264-25.6-25.6-25.6zM384 452.096H179.2c-14.336 0-25.6 11.264-25.6 25.6s11.264 25.6 25.6 25.6h204.8c14.336 0 25.6-11.264 25.6-25.6s-11.264-25.6-25.6-25.6zM281.6 264.704H179.2c-14.336 0-25.6 11.264-25.6 25.6s11.264 25.6 25.6 25.6h102.4c14.336 0 25.6-11.264 25.6-25.6s-11.264-25.6-25.6-25.6zM332.8 76.8H179.2c-14.336 0-25.6 11.264-25.6 25.6s11.264 25.6 25.6 25.6h153.6c14.336 0 25.6-11.264 25.6-25.6s-11.264-25.6-25.6-25.6zM640 0c-141.312 0-256 114.688-256 256s114.688 256 256 256 256-114.688 256-256-114.688-256-256-256z m0 460.8c-113.152 0-204.8-91.648-204.8-204.8s91.648-204.8 204.8-204.8 204.8 91.648 204.8 204.8-91.648 204.8-204.8 204.8zM998.4-128c-6.656 0-13.312 2.56-17.92 7.68l-189.44 189.44c-10.24 10.24-10.24 26.112 0 36.352s26.112 10.24 36.352 0l189.44-189.44c10.24-10.24 10.24-26.112 0-36.352-5.12-5.12-11.776-7.68-18.432-7.68z"  horiz-adv-x="1024" />

    
    <glyph glyph-name="tongji" unicode="&#58882;" d="M442.9 350.5V754.8C236.5 736.1 74.6 562.3 74.6 350.5c0-224.3 181.4-406.1 405.2-406.1 211.3 0 384.7 162.2 403.3 369.2H479.8c-20.4 0-36.9 16.5-36.9 36.9zM883.1 313.6zM515.7 823.4v-439h437.9c-21 232.8-205.7 418-437.9 439z"  horiz-adv-x="1024" />

    
    <glyph glyph-name="yemian" unicode="&#58883;" d="M569.8048 874.7264a82.0736 82.0736 0 0 1-110.2848 0L13.568 451.2768a41.1392 41.1392 0 0 1 55.0912-61.1072l7.0912 6.7328V-45.05600000000004a82.2784 82.2784 0 0 1 82.2784-82.3808h239.4368v247.7056a57.9328 57.9328 0 0 0 57.9584 58.0096h112.6656a57.9328 57.9328 0 0 0 57.9584-58.0096v-247.7056h245.12a82.2784 82.2784 0 0 1 82.304 82.3808V391.5008c18.2784-16.5376 44.2112-15.2832 59.4176 1.664a41.1392 41.1392 0 0 1-2.9696 58.112L569.8048 874.7008z"  horiz-adv-x="1024" />

    
    <glyph glyph-name="word" unicode="&#59009;" d="M185.6 851.2c-17.066667 0-36.266667-17.066667-36.266667-34.133333v-866.133334c0-17.066667 17.066667-34.133333 36.266667-34.133333h693.333333c17.066667 0 36.266667 17.066667 36.266667 34.133333V646.4l-206.933333 204.8H185.6zM706.133333 853.333333L704 686.933333c0-19.2 19.2-40.533333 38.4-40.533333H917.333333L706.133333 853.333333zM714.666667 138.666667l-179.2 189.866666-179.2-189.866666c-10.666667-10.666667-23.466667-14.933333-36.266667-10.666667-12.8 4.266667-19.2 17.066667-19.2 29.866667v320c0 17.066667 14.933333 32 32 32s32-14.933333 32-32v-238.933334l149.333333 157.866667c6.4 6.4 14.933333 10.666667 23.466667 10.666667 8.533333 0 17.066667-4.266667 23.466667-10.666667l147.2-155.733333V477.866667c0 17.066667 14.933333 32 32 32s32-14.933333 32-32v-317.866667c0-12.8-8.533333-25.6-19.2-29.866667-8.533333-2.133333-12.8-2.133333-14.933334-2.133333-10.666667 0-17.066667 4.266667-23.466666 10.666667z"  horiz-adv-x="1024" />

    
    <glyph glyph-name="kejian1" unicode="&#58973;" d="M888.27 250.213L749.903 379.42 611.539 250.213v452.06h-55.363s-89.163-10.7-88.11 64.36c0.811 68.169 79.113 64.035 79.113 64.035l654.864 0.81c11.834 0 27.64 10.051 27.64 36.881S1202.044 896 1202.044 896H556.176C397.628 896 390.09 757.635 390.09 757.635v-728.789C390.09-95.577 519.295-128 519.295-128h507.42c169.168 0 193.727 129.123 193.727 129.123V702.271H888.108v-452.058h0.161z"  horiz-adv-x="1621" />

    
    <glyph glyph-name="qiandao" unicode="&#58938;" d="M864.4-27.600000000000023H160.6c-34.2 0-62.1 27.8-62.1 62.1V678.6c0 34.2 27.8 62.1 62.1 62.1h703.8c34.2 0 62.1-27.8 62.1-62.1v-644.1c0-34.2-27.9-62.1-62.1-62.1zM160.6 699.3c-11.4 0-20.7-9.3-20.7-20.7v-644.1c0-11.4 9.3-20.7 20.7-20.7h703.8c11.4 0 20.7 9.3 20.7 20.7V678.6c0 11.4-9.3 20.7-20.7 20.7H160.6zM119.3 505.8H891v-41.4H119.3zM332.8 644.1c-11.4 0-20.7 9.3-20.7 20.7V775.1c0 11.4 9.3 20.7 20.7 20.7s20.7-9.3 20.7-20.7v-110.4c0-11.3-9.3-20.6-20.7-20.6zM692.3 644.1c-11.4 0-20.7 9.3-20.7 20.7V775.1c0 11.4 9.3 20.7 20.7 20.7s20.7-9.3 20.7-20.7v-110.4c0-11.3-9.3-20.6-20.7-20.6zM681.8 357.4L449.1 124.60000000000002M449.1 103.89999999999998c-5.3 0-10.6 2-14.6 6.1-8.1 8.1-8.1 21.2 0 29.3L667.2 372c8.1 8.1 21.2 8.1 29.3 0 8.1-8.1 8.1-21.2 0-29.3L463.7 110c-4.1-4-9.4-6.1-14.6-6.1zM343.2 230.5L449 124.60000000000002M449 104c-5.3 0-10.6 2-14.6 6.1L328.6 215.79999999999995c-8.1 8.1-8.1 21.2 0 29.3 8.1 8.1 21.2 8.1 29.3 0l105.8-105.8c8.1-8.1 8.1-21.2 0-29.3-4.1-4-9.4-6-14.7-6z"  horiz-adv-x="1024" />

    
    <glyph glyph-name="renmai" unicode="&#58982;" d="M344.626 295.464c8.607 3.256 19.065 6.233 31.491 14.042 18.109 11.379 32.062 34.843-1.603 63.595-111.384 160.502-70.843 267.145-53.924 307.317-14.133 5.496-30.208 8.747-48.608 8.747h-5.787c-106.593 0-134.923-96.947-137.085-151.323-1.43-128.215 76.955-179.192 76.955-179.192s4.883-6.742 4.883-26.297c0-4.458-2.906-17.813-7.921-21.847-43.752-35.43-189.787-72.341-199.992-148.665-5.395-22.053-2.168-44.959-1.106-66.186 23.896-18.349 100.454-33.905 100.454-33.905s6.356 19.31 12.808 51.222c9.536 47.171 73.357 123.507 229.435 182.492z m676.565-132.952c-10.484 76.229-160.407 113.09-205.271 148.474-5.151 4.033-8.11 17.367-8.11 21.813 0 19.539 4.972 26.27 4.972 26.27s80.384 50.909 78.882 178.961c-2.191 54.311-36.079 151.135-140.477 151.135h-5.937c-22.504 0-41.425-4.278-57.578-11.272 22.338-74.782 49.177-212.002-63.755-303.96-44.306-66.052 103.281-104.794 80.341-94.485C837.807 219.43 873.75 173.386 883.537 125.78c8.172-39.733 12.808-64.031 12.808-64.031s100.058 15.272 125.936 34.66c1.116 21.204 4.422 44.078-1.09 66.103zM585.685 308.824c-6.312 5.016-9.943 21.612-9.943 27.136 0 24.28 6.077 32.626 6.077 32.626-0.111-0.072 98.734 53.379 96.79 222.424-2.692 67.509-44.256 187.833-172.348 187.833h-7.285c-134.018 0-169.661-120.323-172.366-187.833-1.809-159.138 96.768-222.424 96.768-222.424s11.954-13.634 11.954-37.916c0-5.53-9.485-16.824-15.787-21.847-55.013-43.982-253.102-88.31-265.943-183.044-9.943-40.19-68.755-103.929 126.791-129.589 53.869-7.067 127.043-11.245 225.859-11.245 453.509 0 359.745 87.859 346.999 139.37-12.849 94.73-212.535 140.529-267.566 184.509z"  horiz-adv-x="1025" />

    
    <glyph glyph-name="chengyuan" unicode="&#58900;" d="M858.658133 397.175467a249.4464 249.4464 0 0 1-73.864533 49.834666 217.4976 217.4976 0 0 1 79.189333 69.0176c24.917333 35.498667 38.024533 77.0048 38.024534 120.149334 0 117.896533-98.7136 213.8112-220.091734 213.8112-46.011733 0-89.975467-13.653333-127.317333-39.389867-32.494933-22.391467-57.890133-52.497067-73.864533-87.586133-41.642667 43.485867-99.5328 68.266667-161.245867 68.266666C198.109867 791.278933 99.328 695.296 99.328 577.467733c0-43.008 13.175467-84.514133 38.024533-120.0128 20.343467-29.149867 47.5136-52.701867 79.189334-69.085866-27.306667-12.014933-52.155733-28.672-73.864534-49.834667a238.114133 238.114133 0 0 1-73.5232-171.8272v-175.104c0-53.179733 44.509867-96.529067 99.396267-96.529067h302.08c39.867733 0 75.844267 23.415467 91.409067 58.709334h271.086933c54.749867 0 99.396267 43.2128 99.396267 96.529066V225.4848a238.933333 238.933333 0 0 1-73.864534 171.690667zM581.290667 733.866667a143.018667 143.018667 0 0 0 100.625066 40.482133c38.024533 0 73.728-14.336 100.5568-40.482133a135.304533 135.304533 0 0 0 0-195.3792 143.018667 143.018667 0 0 0-100.5568-40.5504c-38.0928 0-73.796267 14.336-100.625066 40.5504a134.894933 134.894933 0 0 0-41.642667 97.621333c0 37.0688 14.7456 71.68 41.642667 97.757867z m-404.206934-156.330667c0 36.932267 14.7456 71.611733 41.642667 97.621333a143.018667 143.018667 0 0 0 100.625067 40.5504c38.0928 0 73.728-14.336 100.625066-40.5504a135.168 135.168 0 0 0 0-195.3792 143.018667 143.018667 0 0 0-100.625066-40.482133c-37.956267 0-73.728 14.336-100.693334 40.482133a135.3728 135.3728 0 0 0-41.642666 97.6896z m314.7776-585.796267a20.002133 20.002133 0 0 0-6.3488-14.677333 21.640533 21.640533 0 0 0-15.086933-6.144H168.277333a21.162667 21.162667 0 0 0-21.435733 20.821333v175.035734a163.84 163.84 0 0 0 50.722133 118.3744 173.806933 173.806933 0 0 0 121.787734 49.152c45.8752 0 89.088-17.408 121.856-49.152 0.546133-0.546133 1.092267-1.092267 1.365333-1.501867l0.341333-0.4096a163.84 163.84 0 0 0 48.9472-116.5312v-174.967467zM472.610133 358.741333a248.763733 248.763733 0 0 1-50.3808 29.627734 217.770667 217.770667 0 0 1 98.304 102.1952c16.861867-17.544533 36.590933-32.290133 58.368-43.485867a250.129067 250.129067 0 0 1-106.2912-88.337067z m381.7472-308.565333a21.162667 21.162667 0 0 0-21.435733-20.821333H569.821867v137.352533c0 48.196267-14.472533 94.4128-41.847467 134.212267a173.6704 173.6704 0 0 0 153.873067 92.091733c45.8752 0 89.156267-17.476267 121.856-49.288533a163.84 163.84 0 0 0 50.653866-118.306134v-175.172266z"  horiz-adv-x="1024" />

    
    <glyph glyph-name="pingmu-" unicode="&#59144;" d="M889 693v-484.9H132.8V693H889m17.5 70.1H115.3c-29 0-52.5-23.5-52.5-52.5v-519.9c0-29 23.5-52.5 52.5-52.5h791.3c29 0 52.5 23.5 52.5 52.5V710.5c-0.1 29-23.6 52.6-52.6 52.6z m0 0M517.5 138.1V76h-13.4v62.1h13.4m17.5 70h-48.4c-29 0-52.5-23.5-52.5-52.5v-97.2c0-29 23.5-52.5 52.5-52.5H535c29 0 52.5 23.5 52.5 52.5v97.2c0.1 29-23.5 52.5-52.5 52.5z m0 0M695.6 75.9H326.2c-19.3 0-35-15.7-35-35s15.7-35 35-35h369.4c19.3 0 35 15.7 35 35 0 19.4-15.7 35-35 35zM510.9 287.3c-19.3 0-35-15.7-35-35s15.7-35 35-35 35 15.7 35 35c0 19.4-15.7 35-35 35z m0 0"  horiz-adv-x="1024" />

    
    <glyph glyph-name="gerenzhongxinH" unicode="&#58884;" d="M182.1594674-133.01573585999995h659.24119242c60.66908426 0 109.82432829 48.71240394 109.82432829 108.93864687 0 195.44006717-159.86525131 353.68157184-356.92906511 353.68157184h-164.73649244c-197.21142757 0-356.92906511-158.38911724-356.92906511-353.68157184-0.4428401-60.07863038 48.86001649-108.93864809 109.52910195-108.93864687z m247.10473683 408.15089467h164.73649122c166.80307795 0 302.16451474-134.18052903 302.16451474-299.35986037 0-30.11312208-24.50381452-54.32171027-54.76455037-54.32171147H182.01185363c-30.40834841 0-54.76455037 24.50381452-54.76455037 54.32171147-0.14761377 165.47455886 135.21382301 299.35986157 302.01690097 299.35986037z m82.36824562 81.4825654c151.74651692 0 274.56081951 121.78100861 274.56081949 272.05139266s-122.81430138 272.05139266-274.56081949 272.05139267-274.56081951-121.78100861-274.56081951-272.05139267c-0.14761377-149.97515773 123.10952892-272.05139266 274.56081951-272.05139266z m0 489.92868882c121.48578228 0 219.9438817-97.57242042 219.9438829-217.87729616s-98.45810062-217.87729495-219.9438829-217.87729495-219.9438817 97.57242042-219.9438817 218.02490873c0.29522634 120.15726197 98.75332695 217.7296824 219.9438817 217.72968238z"  horiz-adv-x="1024" />

    
    <glyph glyph-name="zuoye" unicode="&#58887;" d="M1063.47358 849.047524a23.476238 23.476238 0 0 0 23.476238-23.476238v-784.106348a23.476238 23.476238 0 0 0-23.476238-23.476238H669.495355l-13.7336-13.757076L570.472583-81.034072l-85.289173 85.265696-13.733599 13.757076H70.428714a23.476238 23.476238 0 0 0-23.476238 23.476238V825.571286a23.476238 23.476238 0 0 0 23.476238 23.476238h382.662679a70.287857 70.287857 0 0 0 68.315852-53.244108l45.543902-182.034749 45.543902 182.034749A70.287857 70.287857 0 0 0 680.810901 849.047524h382.662679m0 46.952476H680.810901a117.38119 117.38119 0 0 1-113.859754-88.810608A117.38119 117.38119 0 0 1 453.091393 896H70.428714A70.428714 70.428714 0 0 1 0 825.571286v-784.106348a70.428714 70.428714 0 0 1 70.428714-70.428714h381.559296l85.289172-85.289173a46.952476 46.952476 0 0 1 66.390801 0L688.957156-28.963776H1063.47358a70.428714 70.428714 0 0 1 70.428714 70.428714V825.571286a70.428714 70.428714 0 0 1-70.428714 70.428714zM579.863078 785.661682h-25.823862a11.738119 11.738119 0 0 1-11.738119-11.738119v-878.011301a11.738119 11.738119 0 0 1 11.738119-11.738119h25.823862a11.738119 11.738119 0 0 1 11.738119 11.738119V773.923563a11.738119 11.738119 0 0 1-11.738119 11.738119zM424.919907 715.232968H166.68129a23.476238 23.476238 0 0 1 0-46.952476h258.238617a23.476238 23.476238 0 0 1 0 46.952476zM424.919907 574.37554H166.68129a23.476238 23.476238 0 0 1 0-46.952476h258.238617a23.476238 23.476238 0 0 1 0 46.952476zM424.919907 419.432369H166.68129a23.476238 23.476238 0 0 1 0-46.952476h258.238617a23.476238 23.476238 0 0 1 0 46.952476zM685.506149 395.956131a23.476238 23.476238 0 0 1 23.476238-23.476238h48.243669l40.68432 46.952476H708.982387a23.476238 23.476238 0 0 1-23.476238-23.476238zM967.221005 715.232968H708.982387a23.476238 23.476238 0 0 1 0-46.952476h258.238618a23.476238 23.476238 0 0 1 0 46.952476z m-281.714856-164.333666a23.476238 23.476238 0 0 1 23.476238-23.476238h182.52775l40.684321 46.952476H708.982387a23.476238 23.476238 0 0 1-23.476238-23.476238zM1032.297136 415.089265l-61.038218 51.647724c-4.202247 3.568388-11.362499 1.972004-15.963842-3.544912l-20.048707-24.063144c-4.695248-5.540392-4.93001-12.911931-0.727764-16.433367l61.038219-51.647723c4.202247-3.568388 11.362499-1.972004 15.963842 3.544912l20.048707 24.063143c4.624819 5.469963 4.93001 12.864978 0.727763 16.433367z m-109.446221-6.385537c-4.202247 3.568388-11.362499 1.972004-15.963842-3.568388l-163.699807-196.472636c-4.695248-5.540392-4.93001-12.911931-0.727764-16.433366l61.038219-51.647724c4.202247-3.568388 11.362499-1.972004 15.963842 3.568389l163.699807 196.472635c4.695248 5.540392 4.93001 12.911931 0.727764 16.433367z m-201.895647-230.207989a11.972881 11.972881 0 0 1-8.874018-10.634736L708.982387 97.807909a6.338584 6.338584 0 0 1 8.099302-6.855062l67.846328 15.095221a11.972881 11.972881 0 0 1 8.874018 10.634736l0.18781 4.413533-68.808854 58.361927z"  horiz-adv-x="1133" />

    
    <glyph glyph-name="fuxi" unicode="&#58888;" d="M1063.47358 849.047524a23.476238 23.476238 0 0 0 23.476238-23.476238v-784.106348a23.476238 23.476238 0 0 0-23.476238-23.476238H669.495355l-13.7336-13.757076L570.472583-81.034072l-85.289173 85.265696-13.733599 13.757076H70.428714a23.476238 23.476238 0 0 0-23.476238 23.476238V825.571286a23.476238 23.476238 0 0 0 23.476238 23.476238h382.662679a70.287857 70.287857 0 0 0 68.315852-53.244108l45.543902-182.034749 45.543902 182.034749A70.287857 70.287857 0 0 0 680.810901 849.047524h382.662679m0 46.952476H680.810901a117.38119 117.38119 0 0 1-113.859754-88.810608A117.38119 117.38119 0 0 1 453.091393 896H70.428714A70.428714 70.428714 0 0 1 0 825.571286v-784.106348a70.428714 70.428714 0 0 1 70.428714-70.428714h381.559296l85.289172-85.289173a46.952476 46.952476 0 0 1 66.390801 0L688.957156-28.963776H1063.47358a70.428714 70.428714 0 0 1 70.428714 70.428714V825.571286a70.428714 70.428714 0 0 1-70.428714 70.428714zM579.863078 785.661682h-25.823862a11.738119 11.738119 0 0 1-11.738119-11.738119v-878.011301a11.738119 11.738119 0 0 1 11.738119-11.738119h25.823862a11.738119 11.738119 0 0 1 11.738119 11.738119V773.923563a11.738119 11.738119 0 0 1-11.738119 11.738119zM424.919907 715.232968H166.68129a23.476238 23.476238 0 0 1 0-46.952476h258.238617a23.476238 23.476238 0 0 1 0 46.952476zM424.919907 574.37554H166.68129a23.476238 23.476238 0 0 1 0-46.952476h258.238617a23.476238 23.476238 0 0 1 0 46.952476zM424.919907 419.432369H166.68129a23.476238 23.476238 0 0 1 0-46.952476h258.238617a23.476238 23.476238 0 0 1 0 46.952476zM889.749419 442.908607c1.056431-0.892097 2.347624 2.347624 2.347624 2.347624s55.685636 25.166527 79.819209 49.3001a15.564746 15.564746 0 0 1 2.347624 0v18.78099h-187.809904s16.550748 14.97784 16.433367 18.78099c-0.915573 1.455527-30.519109 2.347624-30.51911 2.347624s-26.880292-43.313659-100.947823-79.819209c-0.117381-0.117381 16.433367-18.78099 16.433367-18.78099s63.90232 40.026986 70.428714 49.300099c0.657335-0.516477 4.437009-8.874018 65.733466-42.257228 0.258239-0.117381-13.968362-10.846022-133.814556-28.171486 1.432051-0.892097 16.433367-23.476238 16.433366-23.476238s100.689585 20.846899 147.900299 37.561981c1.831147 0.657335 59.606168-23.358857 143.205052-32.866733-0.117381 0.281715 18.78099 28.171486 18.78099 28.171486s-102.77897 5.986441-126.771685 18.78099z m-110.338318 51.647724h152.595547s-53.737109-39.909605-77.471586-39.909605-75.123962 39.909605-75.123961 39.909605z m-56.342971 157.290794c-0.164334 0 0-122.076437 0-122.076437h23.476238v11.738119h204.24327v-7.042872h23.476238v124.424061H730.111001s15.400412 20.236517 21.128614 28.171486h258.238618v18.78099H762.977734s17.208082 22.701522 18.780991 30.51911h-30.51911s-14.860459-47.375048-79.819209-100.947824c-0.633858-1.455527 14.085743-18.78099 14.085743-18.78099a194.618013 194.618013 0 0 1 37.561981 35.214357z m23.476238-11.738119h204.24327v-28.171486h-204.24327z m0-49.3001h204.24327v-28.171485h-204.24327z"  horiz-adv-x="1133" />

    
    <glyph glyph-name="yuxi" unicode="&#58889;" d="M1063.47358 849.047524a23.476238 23.476238 0 0 0 23.476238-23.476238v-784.106348a23.476238 23.476238 0 0 0-23.476238-23.476238H669.495355l-13.7336-13.757076L570.472583-81.034072l-85.289173 85.265696-13.733599 13.757076H70.428714a23.476238 23.476238 0 0 0-23.476238 23.476238V825.571286a23.476238 23.476238 0 0 0 23.476238 23.476238h382.662679a70.287857 70.287857 0 0 0 68.315852-53.244108l45.543902-182.034749 45.543902 182.034749A70.287857 70.287857 0 0 0 680.810901 849.047524h382.662679m0 46.952476H680.810901a117.38119 117.38119 0 0 1-113.859754-88.810608A117.38119 117.38119 0 0 1 453.091393 896H70.428714A70.428714 70.428714 0 0 1 0 825.571286v-784.106348a70.428714 70.428714 0 0 1 70.428714-70.428714h381.559296l85.289172-85.289173a46.952476 46.952476 0 0 1 66.390801 0L688.957156-28.963776H1063.47358a70.428714 70.428714 0 0 1 70.428714 70.428714V825.571286a70.428714 70.428714 0 0 1-70.428714 70.428714zM579.863078 785.661682h-25.823862a11.738119 11.738119 0 0 1-11.738119-11.738119v-878.011301a11.738119 11.738119 0 0 1 11.738119-11.738119h25.823862a11.738119 11.738119 0 0 1 11.738119 11.738119V773.923563a11.738119 11.738119 0 0 1-11.738119 11.738119zM424.919907 715.232968H166.68129a23.476238 23.476238 0 0 1 0-46.952476h258.238617a23.476238 23.476238 0 0 1 0 46.952476zM424.919907 574.37554H166.68129a23.476238 23.476238 0 0 1 0-46.952476h258.238617a23.476238 23.476238 0 0 1 0 46.952476zM424.919907 419.432369H166.68129a23.476238 23.476238 0 0 1 0-46.952476h258.238617a23.476238 23.476238 0 0 1 0 46.952476zM814.625458 604.894649h-63.385843l14.085743 14.085743-11.738119 11.738119 51.647724 61.038219V715.232968h-129.119309v-23.476238h98.600199l-37.56198-44.604853-25.823862 23.476238-16.433367-16.433366 44.604852-46.952476v-2.347624h-68.08109v-23.476238h56.342971v-147.900299a32.350256 32.350256 0 0 0-9.390495-11.738119c-0.986002 0-44.604852 2.347624-44.604852 2.347624l4.695248-28.171486h44.604852s30.519109 4.037913 30.519109 30.519109v154.943171h35.214357s-9.742639-44.252709-14.085743-51.647723c0.352144 0.657335 21.128614-7.042871 21.128614-7.042872s18.428847 51.342532 18.780991 56.342971 0 25.823862 0 25.823862zM1014.173481 694.104353v21.128615h-194.852776v-21.128615h79.81921s-5.469963-42.116371-9.390496-49.300099c-0.915573-0.469525-58.690595 0-58.690595 0v-169.028914h23.476238v145.552676h119.728814v-145.552676h23.476238v169.028914h-82.166833s9.625258 44.74571 9.390495 49.300099c0 0.539953 89.209704 0 89.209705 0zM917.920905 485.165835s9.390495 41.740751 9.390495 56.342972v65.733466h-25.823862v-68.08109s6.009917-89.045371-110.338318-126.771685c0.704287 0.516477 21.128614-21.128614 21.128614-21.128615s54.629206 18.264513 93.904952 72.776338c0.37562-1.502479 89.209704-70.428714 89.209704-70.428714l18.780991 21.128614z"  horiz-adv-x="1133" />

    
    <glyph glyph-name="IP1" unicode="&#58891;" d="M957.217391 829.217391v-890.434782H66.782609V829.217391h890.434782m0 66.782609H66.782609A66.782609 66.782609 0 0 1 0 829.217391v-890.434782a66.782609 66.782609 0 0 1 66.782609-66.782609h890.434782a66.782609 66.782609 0 0 1 66.782609 66.782609V829.217391a66.782609 66.782609 0 0 1-66.782609 66.782609zM398.469565 686.747826H193.669565v-71.234783h204.8V686.747826zM398.469565 143.582609H193.669565v-71.234783h204.8v71.234783zM331.686957 633.321739h-71.234783v-556.521739h71.234783V633.321739zM567.652174 686.747826h-71.234783v-612.173913h71.234783V686.747826zM692.313043 686.747826h-129.113043l2.226087-4.452174v-64.556522h111.304348s117.982609 1.491478 117.982608-120.208695-117.982609-124.66087-117.982608-124.66087h-111.304348v-71.234782h126.886956s184.765217 22.26087 184.765218 207.026087-184.765217 178.086957-184.765218 178.086956z"  horiz-adv-x="1024" />

    
    <glyph glyph-name="wode-weixuanzhong" unicode="&#58893;" d="M781.351359 281.158756a139.482245 139.482245 0 0 0 139.319706-139.319706V-58.340147a23.219951 23.219951 0 0 0-23.219951-23.219951H126.548742a23.219951 23.219951 0 0 0-23.219951 23.219951v200.179197a139.482245 139.482245 0 0 0 139.319706 139.319706h538.702862M511.999928-72.759737a108.669371 108.669371 0 0 1 108.553271 108.553271v134.397076a92.879804 92.879804 0 0 1-92.879804 92.879804h-31.346934a92.879804 92.879804 0 0 1-92.879804-92.879804v-134.397076A108.669371 108.669371 0 0 1 511.999928-72.759737m269.351431 400.358395H242.648497a185.759608 185.759608 0 0 1-185.759608-185.759608V-58.340147a69.659853 69.659853 0 0 1 69.659853-69.659853h770.902372a69.659853 69.659853 0 0 1 69.659853 69.659853v200.179197a185.759608 185.759608 0 0 1-185.759608 185.759608zM511.999928-26.319835a62.113369 62.113369 0 0 0-62.113369 62.113369v134.397076a46.439902 46.439902 0 0 0 46.439902 46.439902h31.346934a46.439902 46.439902 0 0 0 46.439902-46.439902v-134.397076A62.113369 62.113369 0 0 0 511.999928-26.319835zM511.999928 849.559936a209.838697 209.838697 0 1 0-209.560058-209.838697A209.954797 209.954797 0 0 0 511.999928 849.559936m0 46.439901a256.278599 256.278599 0 1 1 255.999959-256.278598A256.139279 256.139279 0 0 1 511.999928 895.999837z"  horiz-adv-x="1024" />

    
    <glyph glyph-name="wode-xuanzhong" unicode="&#58894;" d="M781.351474 327.59873H242.648526a185.759637 185.759637 0 0 1-185.759637-185.759637V-58.340136a69.659864 69.659864 0 0 1 69.659864-69.659864h770.902494a69.659864 69.659864 0 0 1 69.659864 69.659864v200.179229a185.759637 185.759637 0 0 1-185.759637 185.759637z m-184.018141-300.512653a69.659864 69.659864 0 0 0-69.659864-69.659864h-31.346938a69.659864 69.659864 0 0 0-69.659864 69.659864v168.646531a46.439909 46.439909 0 0 0 46.439909 46.439909h77.786848a46.439909 46.439909 0 0 0 46.439909-46.439909zM256 639.721361a256.278639 256 90 1 1 512 0 256.278639 256 90 1 1-512 0Z"  horiz-adv-x="1024" />

    
    <glyph glyph-name="kecheng-weixuanzhong" unicode="&#58895;" d="M125.229437 679.696623c15.515152-17.022338 36.128139-30.498355 63.368312-33.82303l2.726234-0.332467H193.939394c57.738528 0.110823 145.709437 0.155152 261.541125 0.155151 197.264069 0 410.04329-0.155152 412.259741-0.155151a22.164502 22.164502 0 0 0 22.164502-22.164503v-596.225108a110.955498 110.955498 0 0 0-110.822511-110.822511H236.051948a110.955498 110.955498 0 0 0-110.822511 110.822511V679.696623M125.229437 780.744589A44.329004 44.329004 0 0 1 80.900433 736.415584v-709.264069a155.151515 155.151515 0 0 1 155.151515-155.151515h543.030303a155.151515 155.151515 0 0 1 155.151515 155.151515V623.376623a66.493506 66.493506 0 0 1-66.493506 66.493507s-212.624069 0.155152-412.259741 0.155151c-99.74026 0-196.399654 0-261.541125-0.155151-53.194805 6.516364-68.709957 90.874459-68.709957 90.874459zM300.329004 649.974026l-35.463203-2.21645v-376.796537s11.082251-19.283117 27.683463-19.283117c6.316883 0 13.431688 2.770563 21.078442 10.417316 30.010736 24.846407 113.038961 95.307359 113.038961 95.307359l119.688311-106.38961a43.132121 43.132121 0 0 1 15.891948-3.280346c9.974026 0 21.743377 4.4329 26.220606 23.228398 1.706667 41.092987 0 374.580087 0 374.580087h-37.679653v-314.735931s-3.213853-14.91671-15.227013-14.91671c-4.610216 0-10.505974 2.21645-18.01974 8.267359-27.107186 21.898528-77.575758 73.142857-77.575758 73.142857s-7.114805 8.045714-15.847619 8.045715c-4.87619 0-10.24-2.504589-15.182684-10.262165-21.189264-17.997576-82.008658-70.926407-82.008658-70.926407a20.590823 20.590823 0 0 0-3.767965-0.310303c-6.649351 0-20.23619 2.748398-20.612987 24.691256-0.509784 29.279307-2.21645 301.437229-2.216451 301.437229zM209.454545 856.103896h667.151516V896H202.805195a121.904762 121.904762 0 0 1 0-243.809524h673.800866V689.87013H209.454545a73.142857 73.142857 0 0 0-73.142857 73.142857v19.948052a73.142857 73.142857 0 0 0 73.142857 73.142857zM920.935065 896H189.861126A18.086234 18.086234 0 0 1 171.774892 877.913766v-8.156537A18.086234 18.086234 0 0 1 189.861126 851.670996H920.935065a22.164502 22.164502 0 0 1 0 44.329004z"  horiz-adv-x="1024" />

    
    <glyph glyph-name="weike1" unicode="&#58896;" d="M888.462679 831.463541a64.536459 64.536459 0 0 0 64.53646-64.53646v-559.31598a64.536459 64.536459 0 0 0-64.53646-64.53646H135.537321a64.536459 64.536459 0 0 0-64.53646 64.53646V766.927081a64.536459 64.536459 0 0 0 64.53646 64.53646h752.925358m0 64.536459H135.537321A129.072919 129.072919 0 0 1 6.464402 766.927081v-559.31598a129.072919 129.072919 0 0 1 129.072919-129.072919h752.925358a129.072919 129.072919 0 0 1 129.072919 129.072919V766.927081a129.072919 129.072919 0 0 1-129.072919 129.072919zM479.73177 121.562488a38.549778 38.549778 0 0 1-32.268229-18.564988l-110.357346-177.862482c-10.756077-17.338795-6.281549-39.130606 9.981639-48.682002A32.633936 32.633936 0 0 1 363.566144-127.978488a38.528266 38.528266 0 0 1 32.268229 18.543476l110.228273 177.862482c10.756077 17.338795 6.281549 39.130606-9.981639 48.682002A32.5694 32.5694 0 0 1 479.73177 121.562488zM542.117014 121.562488a32.633936 32.633936 0 0 1-16.564358-4.453016c-16.263188-9.551396-20.716203-31.343207-9.981639-48.682002l110.228273-177.862482A38.528266 38.528266 0 0 1 658.282641-127.978488a32.633936 32.633936 0 0 1 16.564358 4.453016c16.263188 9.551396 20.716203 31.343207 9.981639 48.682002l-110.228272 177.84097A38.549778 38.549778 0 0 1 542.117014 121.562488zM682.35474 524.140921l-223.726392 164.761581a66.687675 66.687675 0 0 1-11.315392 6.625743A55.479843 55.479843 0 0 1 416.270919 704.541837a59.588664 59.588664 0 0 1-19.748157-3.334383l-2.839604-0.580829v-0.494779c-14.111972-5.915842-23.663368-17.209722-23.663368-30.117014v-359.037836c0-12.907292 9.551396-24.201172 23.663368-30.117014v-0.451755c0.838974-0.193609 1.677948-0.344194 2.538434-0.516292a59.481103 59.481103 0 0 1 20.049327-3.441944 55.544379 55.544379 0 0 1 31.300182 9.142665 68.064452 68.064452 0 0 1 11.100271 6.453646l223.726393 164.76158c25.169219 18.651037 25.169219 48.768051-0.043025 67.333039z"  horiz-adv-x="1024" />

    
    <glyph glyph-name="jushou" unicode="&#58897;" d="M807.056797 492.106709s-4.669287 38.638347-79.377872 25.681076V797.944981s-12.887231 58.366083-65.370013 58.366083c-43.914641 0-46.692866-11.673217-46.692866-11.673217s-8.217944-0.6537-11.673216 4.669287-24.560448 46.692866-72.373943 46.692866-70.039299-46.692866-70.039299-60.700726v-23.346433s-8.217944-3.782122-14.00786 0-9.782155 11.673217-35.019649 11.673217-65.813595-21.66549-72.373943-56.03144c-1.120629-38.241457 0-107.393592 0-107.393592s1.891061-17.789982-18.677146-7.003929-88.366249 17.229668-105.058949-58.366083c1.984447-84.934323 2.334643-506.617597 2.334644-506.617597s9.338573-102.724305 58.366082-175.098247c1.494172-0.887164 0-28.01572 0-28.01572s10.972824-24.02348 30.350363-7.00393c2.334643 19.354193 4.669287 31.237527-2.334643 39.688936s-53.323253 105.806034-53.696796 172.763605c0.396889 0-2.334643 504.282953-2.334643 504.282953s9.455305 35.01965 46.692866 35.01965 42.023579-35.01965 42.023579-35.01965v-217.121827s3.245154-18.677146 16.342503-18.677147 18.677146 12.980617 18.677147 18.677147V755.921402s6.35023 37.354293 39.688936 37.354293 42.023579-29.836741 42.023579-37.354293v-378.212215s3.245154-18.677146 18.677147-18.677147 18.677146 21.01179 18.677146 21.01179V828.295344s6.35023 35.01965 42.02358 35.01965 42.023579-34.506028 42.023579-42.02358v-443.582227s5.579797-16.342503 18.677146-16.342503 18.677146 18.677146 18.677147 18.677146V795.610338s14.124592 30.350363 44.358223 30.350363 37.354293-32.685006 37.354292-32.685006v-298.834343s-37.354293-46.179245-37.354292-126.070738v-121.401452s-79.821455-5.929994-121.401452-147.082528c-4.996137-19.751082-1.237361-20.708286 9.338573-25.681076s20.568207 17.416439 21.01179 21.011789 44.685073 127.144674 112.062878 123.736095c11.346366 0.490275 13.564278 11.97672 14.00786 16.342503s0 142.413241 0 142.413242 5.766569 113.907247 77.043229 114.397522c8.241291-9.642077 4.669287-18.677146 4.669287-18.677147v-310.507559s10.435856-108.023946-70.039299-177.432891c-50.91857-47.603377-67.704656-98.055019-67.704656-98.055019s0.32685-27.105209 30.350363-7.003929c10.575934 24.770565 51.689003 77.183308 93.385732 123.736095s45.455505 119.977319 46.692866 163.425031 0 324.515419 0 324.515419z"  horiz-adv-x="1024" />

    
    <glyph glyph-name="xiazai" unicode="&#58949;" d="M548.571429 11.999086 548.571429 457.142857 475.428571 457.142857 475.428571 11.999086 373.2864 114.143086 321.570743 62.429257 512-128 702.429257 62.429257 650.7136 114.143086ZM802.177829 639.213714C784.4992 783.857371 661.429029 896 512 896S239.5008 783.857371 221.822171 639.213714C98.000457 630.999771 0 528.213943 0 402.285714c0-131.285943 106.428343-237.714286 237.714286-237.714286l128 0 0 73.142857-128 0c-90.750171 0-164.571429 73.821257-164.571429 164.571429 0 86.213486 67.428571 158.250057 153.536 163.927771l60.392229 4.035657 7.356343 60.106971C307.856457 740.106971 401.3568 822.857143 512 822.857143s204.143543-82.750171 217.570743-192.4992l7.356343-60.106971 60.392229-4.035657C883.428571 560.535771 950.857143 488.4992 950.857143 402.285714c0-90.750171-73.821257-164.571429-164.571429-164.571429l-128 0 0-73.142857 128 0c131.285943 0 237.714286 106.428343 237.714286 237.714286C1024 528.213943 925.999543 630.999771 802.177829 639.213714z"  horiz-adv-x="1024" />

    
    <glyph glyph-name="finish" unicode="&#59222;" d="M1002.609 610.901c-28.521 28.521-74.766 28.52-103.288-0.001l-490.761-490.761-283.883 283.882c-28.521 28.521-74.764 28.521-103.286-0.001-28.522-28.521-28.521-74.763 0-103.285l332.795-332.795c1.726-1.914 3.548-3.737 5.462-5.463l0.048-0.044 0.006-0.001c12.953-11.637 30.076-18.724 48.858-18.724 18.782 0.001 35.905 7.087 48.856 18.722h0.008l0.051 0.051c1.912 1.722 3.734 3.543 5.457 5.457l539.678 539.678c28.52 28.52 28.52 74.763-0.001 103.285z"  horiz-adv-x="1025" />

    
    <glyph glyph-name="groupnote" unicode="&#58901;" d="M109.44512-128l800.01024 0c27.81184 0 48.00512 20.19328 48.00512 48.00512l0 896c0 27.81184-20.19328 48.00512-48.00512 48.00512l-128 0c-8.82688 0-15.99488-7.168-15.99488-15.99488s7.168-15.99488 15.99488-15.99488l128 0c10.01472 0 15.99488-5.98016 15.99488-15.99488l0-896c0-10.01472-5.98016-15.99488-15.99488-15.99488l-800.01024 0c-10.01472 0-15.99488 5.98016-15.99488 15.99488l0 896c0 10.01472 5.98016 15.99488 15.99488 15.99488l128 0c8.82688 0 15.99488 7.168 15.99488 15.99488s-7.168 15.99488-15.99488 15.99488l-128 0c-27.81184 0-48.00512-20.19328-48.00512-48.00512l0-896c0-27.81184 20.19328-48.00512 48.00512-48.00512zM237.44512 735.9897599999999c8.82688 0 15.99488 7.168 15.99488 15.99488s-7.168 15.99488-15.99488 15.99488l-64 0c-8.82688 0-15.99488-7.168-15.99488-15.99488l0-768c0-8.82688 7.168-15.99488 15.99488-15.99488l672.01024 0c8.82688 0 15.99488 7.168 15.99488 15.99488l0 768c0 8.82688-7.168 15.99488-15.99488 15.99488l-64 0c-8.82688 0-15.99488-7.168-15.99488-15.99488s7.168-15.99488 15.99488-15.99488l48.00512 0 0-736.01024-640 0 0 736.01024 48.00512 0zM349.45024 671.9897599999999l320 0c38.87104 0 64 25.12896 64 64l0 143.99488c0 8.82688-7.168 15.99488-15.99488 15.99488l-416.01024 0c-8.82688 0-15.99488-7.168-15.99488-15.99488l0-143.99488c0-38.87104 25.12896-64 64-64zM317.44 863.98976l384 0 0-128c0-21.23776-10.79296-32.01024-32.01024-32.01024l-320 0c-21.21728 0-32.01024 10.752-32.01024 32.01024l0 128zM333.43488 384l352.01024 0c8.82688 0 15.99488 7.168 15.99488 15.99488s-7.168 15.99488-15.99488 15.99488l-352.01024 0c-8.82688 0-15.99488-7.168-15.99488-15.99488s7.168-15.99488 15.99488-15.99488zM333.43488 512l352.01024 0c8.82688 0 15.99488 7.168 15.99488 15.99488s-7.168 15.99488-15.99488 15.99488l-352.01024 0c-8.82688 0-15.99488-7.168-15.99488-15.99488s7.168-15.99488 15.99488-15.99488zM333.43488 256l352.01024 0c8.82688 0 15.99488 7.168 15.99488 15.99488s-7.168 15.99488-15.99488 15.99488l-352.01024 0c-8.82688 0-15.99488-7.168-15.99488-15.99488s7.168-15.99488 15.99488-15.99488zM333.43488 128l352.01024 0c8.82688 0 15.99488 7.168 15.99488 15.99488s-7.168 15.99488-15.99488 15.99488l-352.01024 0c-8.82688 0-15.99488-7.168-15.99488-15.99488s7.168-15.99488 15.99488-15.99488z"  horiz-adv-x="1024" />

    
    <glyph glyph-name="guanyuwomen" unicode="&#58953;" d="M512 896C229.248 896 0 666.752 0 384c0-282.752 229.248-512 512-512 282.752 0 512 229.248 512 512C1024 666.816 794.816 896 512 896zM512 686.528c38.592 0 69.824-26.048 69.824-58.176S550.592 570.176 512 570.176c-38.528 0-69.824 26.048-69.824 58.176S473.472 686.528 512 686.528zM605.12 104.704 418.944 104.704 418.944 128l46.528 0L465.472 477.12 418.944 477.12 418.944 500.352l139.648 0L558.592 128l46.528 0L605.12 104.704z"  horiz-adv-x="1024" />

    
    <glyph glyph-name="home" unicode="&#59000;" d="M790.55-58.496c-1.907 0-3.336 0-4.409 0.119h-569.909c-38.129 0-60.172 16.086-71.849 29.55-25.618 29.55-23.592 69.585-22.401 80.667l-0 342.803h61.006v-346.854l-0.238-1.787c-0.715-6.077-0.834-25.022 7.864-34.912 1.787-2.026 7.387-8.46 25.618-8.46l572.888-0.119c2.026-0.119 21.328-0.358 33.363 10.962 8.103 7.626 12.154 20.256 12.154 37.414v343.995h61.006v-343.875c0-43.729-17.396-68.99-31.933-82.454-26.214-24.307-59.457-27.048-73.16-27.048v0zM152.485 365.927h-93.773c-12.63 0-24.069 7.864-28.477 19.66-4.528 11.796-1.192 25.26 8.222 33.601l450.16 399.639c11.439 10.128 28.716 10.247 40.274 0.238l456.356-396.303c9.532-8.222 12.988-21.447 8.698-33.244s-15.252-19.899-27.882-20.256l-99.969-2.86c-0.358 0-0.596 0-0.953 0-16.443 0-30.027 13.107-30.503 29.669-0.477 16.801 12.749 30.861 29.669 31.337l21.805 0.596-377 327.313-370.089-328.386h13.464c16.801 0 30.503-13.703 30.503-30.503 0-16.801-13.703-30.503-30.503-30.503v0zM406.639-28.231c-14.179 0-25.737 11.558-25.737 25.737v215.309c0 4.647 1.192 23.711 19.064 41.942 21.686 22.043 58.623 33.244 109.502 33.244 50.163 0 86.624-11.32 108.31-33.72 18.35-18.945 19.541-38.844 19.422-44.087v-211.854c0-14.179-11.558-25.737-25.737-25.737-14.179 0-25.737 11.558-25.737 25.737v211.616c-0.119 1.072-1.192 5.838-7.626 10.962-7.268 5.838-25.737 15.609-68.632 15.609-49.806 0-67.56-12.511-72.802-17.873-2.621-2.621-3.694-4.885-4.17-6.315-0.119-0.238-0.119-0.357-0.119-0.477v-214.237c0-14.298-11.558-25.856-25.737-25.856v0z"  horiz-adv-x="1024" />

    
    <glyph glyph-name="wancheng" unicode="&#59035;" d="M1014.43 467.079h-81.574c5.276-26.879 8.048-54.655 8.048-83.081 0-236.881-192.030-428.909-428.91-428.909-236.881 0-428.909 192.030-428.909 428.909 0 236.881 192.030 428.91 428.909 428.91 42.192 0 82.96-6.097 121.475-17.449v83.142c-38.928 9.529-79.612 14.581-121.475 14.581-281.214 0-509.184-227.969-509.184-509.185 0-281.213 227.969-509.184 509.184-509.184 281.214 0 509.184 227.97 509.184 509.184 0.001 28.293-2.309 56.045-6.747 83.081zM441.149 325.021l-206.099 166.509-94.317-64.625c0 0 370.283-382.51 371.268-372.030 182.633 419.189 488.066 695.155 488.066 695.155l-20.96 48.906c-317.883-181.647-537.957-473.915-537.957-473.915z"  horiz-adv-x="1024" />

    
    <glyph glyph-name="yanzhengma" unicode="&#58934;" d="M512.035158-128c101.956466 34.50699 197.449829 100.585327 266.639596 196.594333 54.523271 75.553257 98.218062 169.56415 129.806988 279.706431 53.240026 185.572487 53.925595 350.894311 53.925595 357.855476 0.105472 15.791533-11.115599 28.893525-26.080932 30.44631-2.355546 0.205085-241.203216 26.286018-407.228188 153.573392a27.809505 27.809505 0 0 1-34.055804 0C329.908096 763.621014 90.175631 736.813495 87.808366 736.60841c-14.965334-1.459032-26.180545-14.654777-26.180546-30.44631 0-6.961166 0.591816-172.27713 53.931455-357.849617 31.594785-109.925477 75.184104-204.065281 129.806988-279.712291 69.189767-95.909393 164.812041-162.093202 266.668895-196.600192m391.823386 807.249108l-0.105472-1.664117c-2.84775-60.376978-13.189885-181.212969-50.585642-311.623492-65.644729-228.681322-180.199264-374.156792-340.517018-432.348152l-0.591816-0.205085-0.603536 0.205085c-159.813831 58.080028-274.274612 203.033997-340.106847 430.906698-39.165346 135.590381-48.616827 264.119983-50.972374 313.164559l-0.105472 1.658257 1.476611 0.210945c69.476886 10.699569 246.523703 46.542541 389.221738 147.959926l0.884795 0.732446 0.990267-0.732446c142.897261-101.417386 319.944078-137.260357 389.426823-148.071258l1.587943-0.193366zM675.692864 533.328311l-210.69831-227.691055-121.867275 106.761311a34.688637 34.688637 0 0 1-22.389406 8.203394 34.366361 34.366361 0 0 1-26.245-12.058989c-12.305091-14.414535-10.664412-36.335175 3.873174-48.640266l149.641622-130.539433c6.099809-5.162279 14.531726-8.203394 22.975362-8.203394 1.054722 0 2.097725 0 3.158307 0.123051a34.51285 34.51285 0 0 1 23.795701 13.348093l232.835755 256.637316a33.932753 33.932753 0 0 1 6.685766 25.541853c-1.166054 9.146784-5.976758 17.227127-13.242622 22.852311-15.363785 11.713274-37.038323 8.783491-48.523074-6.334192z"  horiz-adv-x="1024" />

    
    <glyph glyph-name="photograph" unicode="&#58945;" d="M853.245 28.867h-682.5c-58.684 0-106.418 47.744-106.418 106.428v381.74c0 58.683 47.734 106.428 106.418 106.428h224.863l19.826 52.705c14.162 37.659 50.713 62.964 90.963 62.964h179.713c40.251 0 76.802-25.305 90.964-62.974l19.826-52.695h56.345c58.684 0 106.428-47.745 106.428-106.428v-381.74c0-58.684-47.743-106.428-106.427-106.428zM170.745 560.997c-24.238 0-43.952-19.724-43.952-43.962v-381.74c0-24.238 19.714-43.952 43.952-43.952h682.5c24.238 0 43.962 19.714 43.962 43.952v381.74c0 24.238-19.724 43.962-43.962 43.962h-77.97c-13.299 0-24.656 8.315-29.158 20.029l-27.503 73.151c-5.064 13.452-18.128 22.49-32.505 22.49h-179.712c-14.376 0-27.44-9.040-32.504-22.49l-27.44-72.948c-4.576-12.17-16.227-20.233-29.23-20.233h-246.479zM595.166 150.342c-102.24 0-185.426 83.187-185.426 185.427 0 102.25 83.187 185.435 185.426 185.435 102.25 0 185.436-83.187 185.436-185.435 0-102.24-83.187-185.427-185.436-185.427zM595.166 458.738c-67.803 0-122.96-55.166-122.96-122.97s55.157-122.959 122.96-122.959 122.97 55.156 122.97 122.96-55.167 122.97-122.97 122.97zM326.445 437.508h-133.545c-0.657 0-1.189 0.532-1.189 1.189v62.94c0 0.656 0.532 1.188 1.19 1.188h133.544c0.657 0 1.189-0.532 1.189-1.189v-62.94c-0.001-0.656-0.533-1.188-1.19-1.188-0 0-0 0-0 0zM310.54 599.456h-101.733c-0.657 0-1.19 0.532-1.19 1.19v62.939c0 0.657 0.533 1.189 1.19 1.189h101.733c0.657 0 1.189-0.532 1.189-1.19v-62.939c-0.001-0.657-0.533-1.189-1.19-1.189-0 0-0 0-0 0z"  horiz-adv-x="1024" />

    
    <glyph glyph-name="fanhui" unicode="&#59053;" d="M671.968-16c-12.288 0-24.576 4.672-33.952 14.048L286.048 350.016c-18.752 18.72-18.752 49.12 0 67.872l351.968 352c18.752 18.752 49.12 18.752 67.872 0 18.752-18.72 18.752-49.12 0-67.872L387.872 383.968l318.016-318.016c18.752-18.752 18.752-49.12 0-67.872-9.344-9.408-21.632-14.08-33.92-14.08z"  horiz-adv-x="1024" />

    
    <glyph glyph-name="taolun" unicode="&#58892;" d="M960.096865 896H446.131892c-81.08973 0-146.847135-65.176216-146.847135-145.546378v-364.073514c0-80.453189 65.674378-145.629405 146.847135-145.629405h212.992l245.843027-140.647784c0.774919-0.553514 1.522162-0.553514 2.24173-0.857946 2.075676-1.024 4.483459-1.632865 6.891243-2.186378 2.324757-0.691892 4.787892-1.383784 7.112649-1.549838 0.774919-0.083027 1.549838-0.470486 2.158702-0.470487 1.632865 0 2.961297 0.691892 4.428108 1.024 2.546162 0.304432 5.036973 0.691892 7.444757 1.466811 2.158703 0.774919 4.179027 1.798919 6.254703 3.044324 2.103351 1.245405 3.957622 2.158703 5.75654 3.791568 1.909622 1.715892 3.404108 3.597838 4.953946 5.535135 0.996324 1.245405 2.075676 2.020324 3.016649 3.487135 0.138378 0.387459-0.083027 0.940973 0.138378 1.245406a36.255135 36.255135 0 0 1 4.815568 16.965189v109.152865c81.08973 0 146.847135 65.093189 146.847135 145.629405V750.453622C1106.944 830.823784 1041.186595 896 960.096865 896z m91.77254-515.625514c0-41.762595-34.151784-83.303784-76.357189-83.303783h-37.943351c-21.227243 0-43.699892-8.413405-43.699892-29.336217v-85.794594l-206.543568 110.149189c-5.286054 2.87827-17.352649 4.981622-17.352648 4.981622h-233.444325c-42.150054 0-82.252108 45.194378-82.252108 86.901621V762.271135c0 41.79027 39.327135 84.327784 81.47719 84.327784h534.168216c42.150054 0 81.864649-45.194378 81.864648-86.901622v-379.322811h0.083027zM670.498595 74.032432h-233.444325s-12.149622-2.020324-17.324973-4.981621l-206.515892-109.983135v85.794594c0 20.922811-22.528 29.253189-43.672216 29.253189H131.514811c-42.122378 0-76.301838 41.624216-76.301838 83.386811v379.156757c0 41.79027 39.74227 86.901622 81.864649 86.901622H230.261622V672.96173H146.847135C65.840432 672.96173 0 607.785514 0 527.415351V163.424865c0-80.508541 65.757405-145.629405 146.847135-145.629406v-109.152864c0-6.310054 2.020324-11.900541 4.815568-16.96519 0.221405-0.387459 0-0.913297 0.138378-1.383783 0.857946-1.411459 2.103351-2.103351 3.016649-3.348757 1.549838-2.020324 3.099676-3.957622 5.036973-5.535135 1.798919-1.549838 3.653189-2.629189 5.728865-3.874595a29.723676 29.723676 0 0 1 13.644108-4.511135c1.549838-0.166054 2.850595-1.024 4.400432-1.024 0.719568 0 1.411459 0.553514 2.186378 0.553514 2.407784 0.138378 4.704865 0.774919 7.112649 1.383783 2.407784 0.774919 4.815568 1.328432 6.891243 2.352433 0.719568 0.304432 1.494486 0.304432 2.186379 0.691892l245.815351 140.813837h212.992a146.321297 146.321297 0 0 1 144.079568 118.230487h-57.703784c-11.45773-32.906378-42.980324-61.993514-76.689297-61.993514z m-246.064433 499.518271c0-23.552 19.013189-42.620541 42.454487-42.620541s42.426811 19.068541 42.42681 42.620541c0 23.552-18.985514 42.620541-42.42681 42.62054-23.441297 0-42.454486-19.068541-42.454487-42.62054z m236.156541 0c0-23.552 19.013189-42.620541 42.454486-42.620541s42.426811 19.068541 42.426811 42.620541c0 23.552-18.985514 42.620541-42.426811 42.62054-23.441297 0-42.454486-19.068541-42.454486-42.62054z m238.868756 0c0-23.552 18.985514-42.620541 42.426811-42.620541 23.441297 0 42.454486 19.068541 42.454487 42.620541 0 23.552-19.013189 42.620541-42.454487 42.62054s-42.426811-19.068541-42.426811-42.62054z"  horiz-adv-x="1107" />

    
    <glyph glyph-name="tupian1" unicode="&#58903;" d="M99.556097 810.67992A85.27598 85.27598 0 0 0 184.960077 895.9999h501.972882l251.733941-255.99994v-683.60484A84.33798 84.33798 0 0 0 854.17192-127.99986H184.050077a84.46598 84.46598 0 0 0-84.49398 84.43698V810.68092zM938.6669 639.99996H772.152939a85.33298 85.33298 0 0 0-85.21998 85.24798V895.9999l251.733941-255.99994zM679.509961 467.328l134.953968-271.075936H250.596061c68.393984 62.677985 212.63595 196.764954 212.63595 196.764954l57.258987-105.414975 159.017963 179.725957z m-345.713919-44.458989c-29.823993 0-53.987987 25.656994-53.987988 57.343986 0 31.672993 24.163994 57.372987 53.987988 57.372987 29.751993 0 53.929987-25.713994 53.929987-57.372987 0.014-31.686993-24.162994-57.343987-53.929987-57.343986z"  horiz-adv-x="1024" />

    
    <glyph glyph-name="weike" unicode="&#58909;" d="M888 640H690.9l102.5 102.5c14.1 14.1 14.1 36.9 0 50.9-14.1 14.1-36.9 14.1-50.9 0l-128-128c-7-7-10.5-16.2-10.5-25.5H420c0 9.2-3.5 18.4-10.5 25.5l-128 128c-14.1 14.1-36.9 14.1-50.9 0-14.1-14.1-14.1-36.9 0-50.9L333.1 640H136c-39.8 0-72-32.2-72-72v-496c0-39.8 32.2-72 72-72h752c39.8 0 72 32.2 72 72V568c0 39.8-32.2 72-72 72z m0-568H136V568h752v-496zM621.3 350.2L546 387.9l-113 56.5c-0.7 0.3-1.3 0.6-2 0.9-0.2 0.1-0.4 0.2-0.7 0.3-0.5 0.2-0.9 0.4-1.4 0.5-0.3 0.1-0.5 0.2-0.8 0.3-0.4 0.1-0.8 0.3-1.3 0.4-0.3 0.1-0.5 0.1-0.8 0.2l-1.2 0.3c-0.3 0.1-0.5 0.1-0.8 0.2-0.4 0.1-0.8 0.1-1.3 0.2-0.3 0-0.5 0.1-0.8 0.1-0.4 0.1-0.9 0.1-1.3 0.1-0.2 0-0.5 0-0.7 0.1-0.5 0-1.1 0-1.6 0.1h-0.4-0.1c-0.6 0-1.2 0-1.9-0.1h-0.5c-0.5 0-0.9-0.1-1.4-0.1-0.2 0-0.4-0.1-0.6-0.1-0.5-0.1-0.9-0.1-1.4-0.2-0.2 0-0.4-0.1-0.5-0.1-0.6-0.1-1.2-0.3-1.8-0.4-0.1 0-0.2-0.1-0.3-0.1-0.5-0.1-1-0.3-1.5-0.4-0.2-0.1-0.4-0.1-0.6-0.2-0.4-0.1-0.8-0.3-1.2-0.4-0.2-0.1-0.4-0.2-0.6-0.2-0.5-0.2-0.9-0.4-1.4-0.6-0.1-0.1-0.2-0.1-0.4-0.2-0.6-0.3-1.1-0.5-1.7-0.8-0.2-0.1-0.3-0.2-0.5-0.3-0.4-0.2-0.8-0.4-1.2-0.7-0.2-0.1-0.4-0.2-0.6-0.4-0.4-0.2-0.7-0.5-1.1-0.7-0.2-0.1-0.3-0.2-0.5-0.3-0.5-0.4-1-0.7-1.5-1.1-0.1-0.1-0.2-0.1-0.2-0.2-0.4-0.3-0.8-0.7-1.2-1-0.2-0.1-0.3-0.3-0.5-0.4l-0.9-0.9-0.5-0.5c-0.3-0.3-0.7-0.7-1-1.1l-0.3-0.3-1.2-1.5c-0.1-0.1-0.2-0.3-0.3-0.4-0.3-0.4-0.5-0.7-0.8-1.1-0.1-0.2-0.2-0.4-0.4-0.6-0.2-0.4-0.5-0.8-0.7-1.1-0.1-0.2-0.2-0.3-0.3-0.5-0.3-0.6-0.6-1.1-0.9-1.7 0 0 0-0.1-0.1-0.1-0.3-0.5-0.5-1.1-0.7-1.6-0.1-0.2-0.2-0.4-0.2-0.6-0.2-0.4-0.3-0.9-0.5-1.3-0.1-0.2-0.1-0.4-0.2-0.6-0.2-0.5-0.3-1-0.5-1.5 0-0.1-0.1-0.3-0.1-0.4-0.2-0.6-0.3-1.3-0.5-1.9 0-0.2-0.1-0.3-0.1-0.5l-0.3-1.5c0-0.2-0.1-0.4-0.1-0.7-0.1-0.5-0.1-1-0.1-1.5v-0.6c0-0.7-0.1-1.4-0.1-2.1v-188.4c0-0.7 0-1.4 0.1-2.1v-0.6c0-0.5 0.1-1 0.1-1.5 0-0.2 0.1-0.4 0.1-0.7l0.3-1.5c0-0.2 0.1-0.3 0.1-0.5 0.1-0.7 0.3-1.3 0.5-2 0-0.1 0.1-0.3 0.1-0.4 0.1-0.5 0.3-1 0.5-1.5 0.1-0.2 0.1-0.4 0.2-0.6 0.2-0.4 0.3-0.9 0.5-1.3 0.1-0.2 0.1-0.4 0.2-0.5 0.2-0.6 0.5-1.1 0.8-1.7v-0.1c0.3-0.6 0.6-1.2 0.9-1.7 0.1-0.2 0.2-0.3 0.3-0.5 0.2-0.4 0.5-0.8 0.7-1.2 0.1-0.2 0.2-0.3 0.3-0.5l0.9-1.2c0.1-0.1 0.2-0.2 0.3-0.4l1.2-1.5c0.1-0.1 0.2-0.2 0.2-0.3 0.3-0.4 0.7-0.8 1.1-1.2l0.4-0.4c0.3-0.3 0.7-0.6 1-1l0.4-0.4c0.4-0.4 0.9-0.8 1.3-1.1l0.1-0.1c0.5-0.4 1-0.8 1.5-1.1 0.1-0.1 0.3-0.2 0.4-0.3 0.4-0.3 0.8-0.5 1.2-0.8 0.2-0.1 0.3-0.2 0.5-0.3 0.4-0.2 0.8-0.5 1.2-0.7 0.1-0.1 0.3-0.2 0.4-0.2 0.6-0.3 1.1-0.6 1.7-0.8 0.1 0 0.2-0.1 0.3-0.1l1.5-0.6c0.2-0.1 0.4-0.1 0.6-0.2 0.4-0.2 0.8-0.3 1.3-0.5 0.2-0.1 0.4-0.1 0.6-0.2 0.5-0.2 1-0.3 1.6-0.4 0.1 0 0.2-0.1 0.3-0.1 0.6-0.2 1.2-0.3 1.9-0.4 0.2 0 0.3-0.1 0.5-0.1 0.5-0.1 0.9-0.2 1.4-0.2 0.2 0 0.4-0.1 0.6-0.1 0.5-0.1 0.9-0.1 1.4-0.1h0.5c0.6 0 1.2-0.1 1.9-0.1h0.5c0.5 0 1.1 0 1.6 0.1 0.2 0 0.5 0 0.7 0.1 0.4 0 0.9 0.1 1.3 0.1 0.3 0 0.5 0.1 0.8 0.1 0.4 0.1 0.8 0.1 1.2 0.2 0.3 0.1 0.6 0.1 0.8 0.2l1.2 0.3c0.3 0.1 0.6 0.1 0.8 0.2 0.4 0.1 0.8 0.2 1.2 0.4 0.3 0.1 0.5 0.2 0.8 0.3 0.5 0.2 0.9 0.3 1.4 0.5 0.2 0.1 0.4 0.2 0.7 0.3 0.7 0.3 1.3 0.6 2 0.9l62.8 31.4 125.6 62.8c25 12.1 25 47.5 0.1 60z"  horiz-adv-x="1024" />

    
    <glyph glyph-name="kejian" unicode="&#58926;" d="M293.5098 324.504978c-17.788132 0-33.791617-13.421684-34.41174-31.199583-0.64673-18.536168 13.978363-33.562397 32.360011-33.562397h441.084881c17.989723 0 32.380478 14.391778 32.380478 32.380478-1.798972 17.989723-14.391778 32.380478-32.380478 32.380478l-439.033152 0.001024zM545.605376 478.689592c-17.788132 0-33.791617-13.421684-34.411741-31.199582-0.64673-18.536168 13.978363-33.562397 32.360012-33.562397h188.989305c17.989723 0 32.380478 14.391778 32.380478 32.380478-1.798972 17.989723-14.391778 32.380478-32.380478 32.380478l-186.937576 0.001023zM293.5098 170.321386c-17.788132 0-33.791617-13.421684-34.41174-31.199583-0.64673-18.536168 13.978363-33.562397 32.360011-33.562396h441.084881c17.989723 0 32.380478 14.391778 32.380478 32.380478-1.798972 17.989723-14.391778 32.380478-32.380478 32.380478l-439.033152 0.001023zM453.419813 545.200402c4.304026 5.699816 6.204305 16.147772 5.699816 31.345916-0.506537 12.663414-2.820232 22.036899-6.933923 28.116361-4.117784 6.079462-11.178597 9.118682-21.182438 9.118681H318.918493v-77.130681h112.084775c10.640338 0.001023 18.110473 2.850931 22.416545 8.549723zM259.07657 413.927613V672.674679h185.225585c17.0974 0 30.078039-2.692319 38.944987-8.073886 8.863878-5.384637 15.259542-11.274788 19.186992-17.667382 3.924379-6.396687 6.744611-13.520945 8.454555-21.372773 1.709945-7.853875 2.721994-17.951861 3.03922-30.30112 0.315178-12.348236 0.346901-24.858154 0.094144-37.520545-0.50756-19.377326-2.564405-34.069957-6.17463-44.073798-3.609201-10.005888-8.454556-17.603937-14.532994-22.796192-6.079462-5.194302-12.571317-8.581446-19.472494-10.163477-6.904247-1.585101-16.560164-2.37407-28.970822-2.374071H318.918493v-64.401775h-59.841923zM866.782306 631.361761c-19.449981 26.500561-46.496987 57.481156-76.224033 87.152942-29.721929 29.724998-60.705594 56.827263-87.151919 76.223009-45.13292 33.05893-66.989717 36.883025-79.500658 36.883025H190.274578c-38.578644 0-69.940932-31.363312-69.940932-69.939909v-745.125524c0-38.575574 31.361265-69.939909 69.940932-69.939909h643.450844c38.521339 0 69.942979 31.363312 69.942979 69.939909V551.858032c-0.001023 12.568247-3.827165 34.424021-36.886095 79.503729z m-181.308369-17.824971V730.546737c19.615757-15.861246 40.635489-34.911114 61.363579-55.640228l1.728364-1.678222c20.292162-20.398586 38.749536-40.814568 53.989635-59.690474H685.473937z m-495.201406-605.244684c-4.397147 0-8.258081 3.859911-8.258081 8.258081V761.681852c0 4.397147 3.859911 8.258081 8.258081 8.258081h427.901627v-190.105733c0-18.58631 15.117302-33.70259 33.70259-33.702589h190.105732v-529.581424c0-4.397147-3.859911-8.258081-8.258081-8.258081H190.272531z"  horiz-adv-x="1024" />

    
    <glyph glyph-name="suofang" unicode="&#58996;" d="M399.36 226.747733l-200.465067-200.430933a35.84 35.84 0 1 0-50.688 50.688l194.389334 194.3552H189.44a35.84 35.84 0 1 0 0 71.68h235.52c1.706667 0 3.447467-0.136533 5.12-0.341333a35.84 35.84 0 0 0 40.96-35.498667v-235.52a35.84 35.84 0 1 0-71.68 0v155.067733z m164.113067 208.725334a35.7376 35.7376 0 0 0-10.513067 25.326933v235.52a35.84 35.84 0 1 0 71.68 0v-142.916267l194.3552 194.389334a35.84 35.84 0 0 0 50.688-50.688L669.252267 496.64h155.067733a35.84 35.84 0 1 0 0-71.68h-235.52c-9.898667 0-18.8416 4.027733-25.326933 10.513067zM133.12 896h757.76A133.12 133.12 0 0 0 1024 762.88v-757.76a133.12 133.12 0 0 0-133.12-133.12H133.12A133.12 133.12 0 0 0 0 5.12V762.88A133.12 133.12 0 0 0 133.12 896z m0-71.68a61.44 61.44 0 0 1-61.44-61.44v-757.76a61.44 61.44 0 0 1 61.44-61.44h757.76a61.44 61.44 0 0 1 61.44 61.44V762.88a61.44 61.44 0 0 1-61.44 61.44H133.12z"  horiz-adv-x="1024" />

    
    <glyph glyph-name="banshubianjiqi-dianji" unicode="&#59076;" d="M413.610667 407.893333l-13.312-23.04 23.68 11.52-10.368 11.52z m-18.602667 53.12a42.453333 42.453333 0 0 0 11.904 18.048l190.250667 171.306667a42.666667 42.666667 0 0 0 60.245333-3.157333l28.586667-31.701334a42.666667 42.666667 0 0 0-3.2-60.245333l-190.250667-171.306667a42.453333 42.453333 0 0 0-19.968-10.197333l-109.568-47.018667a17.493333 17.493333 0 0 0-5.034667-1.28 21.333333 21.333333 0 0 0-23.04 31.488l60.074667 104.064zM625.706667 618.666667l-190.250667-171.306667 28.586667-31.701333 190.208 171.306666-28.544 31.701334zM617.386667 128H406.613333l-51.626666-110.72a21.333333 21.333333 0 0 0-38.698667 18.048L359.509333 128H149.333333a21.333333 21.333333 0 1 0 0 42.666667h725.333334a21.333333 21.333333 0 1 0 0-42.666667h-210.176l43.221333-92.672a21.333333 21.333333 0 0 0-38.656-18.048L617.386667 128zM213.333333 768h597.333334a85.333333 85.333333 0 0 0 85.333333-85.333333v-384a85.333333 85.333333 0 0 0-85.333333-85.333334H213.333333a85.333333 85.333333 0 0 0-85.333333 85.333334V682.666667a85.333333 85.333333 0 0 0 85.333333 85.333333z m0-42.666667a42.666667 42.666667 0 0 1-42.666666-42.666666v-384a42.666667 42.666667 0 0 1 42.666666-42.666667h597.333334a42.666667 42.666667 0 0 1 42.666666 42.666667V682.666667a42.666667 42.666667 0 0 1-42.666666 42.666666H213.333333z"  horiz-adv-x="1024" />

    
    <glyph glyph-name="add" unicode="&#58880;" d="M510.352119-16.416237000000024c-220.548741 0-399.339141 178.82643-399.339141 399.403615S289.803378 782.377719 510.352119 782.377719c220.550637 0 399.341037-178.813156 399.341037-399.390341S730.902756-16.416237000000024 510.352119-16.416237000000024zM510.352119 732.455822c-192.982281 0-349.421037-156.461511-349.421037-349.468444S317.369837 33.51703699999996 510.352119 33.51703699999996s349.421037 156.463407 349.421037 349.470341S703.3344 732.455822 510.352119 732.455822zM660.104533 358.02074100000004L535.313067 358.02074100000004l0-124.81043c0-13.778489-11.174874-24.957156-24.959052-24.957156-13.784178 0-24.957156 11.178667-24.957156 24.957156l0 124.81043-124.795259 0c-13.784178 0-24.959052 11.17677-24.959052 24.966637 0 13.780385 11.17677 24.957156 24.959052 24.957156l124.795259 0 0 124.816119c0 13.778489 11.174874 24.951467 24.957156 24.951467 13.786074 0 24.959052-11.171081 24.959052-24.951467l0-124.816119 124.791467 0c13.786074 0 24.959052-11.17677 24.959052-24.957156C685.063585 369.19751099999996 673.890607 358.02074100000004 660.104533 358.02074100000004z"  horiz-adv-x="1024" />

    
    <glyph glyph-name="sousuo" unicode="&#59107;" d="M1010.057392-46.082509l-185.722312 185.722313a463.98579 463.98579 0 1 1-360.18097-171.706742c110.844605 0 212.473493 38.974806 292.279049 103.868819l185.722313-185.722312a47.99853 47.99853 0 0 1 67.90192 67.837922zM64.16636 431.982851C64.16636 652.520097 243.616864 831.970601 464.15411 831.970601s399.98775-179.450504 399.987751-399.98775c0-220.601244-179.450504-400.051748-399.987751-400.051749S64.16636 211.381606 64.16636 431.982851z"  horiz-adv-x="1024" />

    
    </font>
</defs>
</svg>
